<svg width="26" height="26" viewBox="0 0 26 26" fill="none" xmlns="http://www.w3.org/2000/svg">
<path d="M20.3899 16.041C19.8687 15.4983 19.2402 15.2082 18.574 15.2082C17.9132 15.2082 17.2793 15.493 16.7367 16.0356L15.039 17.7279C14.8993 17.6527 14.7596 17.5828 14.6253 17.513C14.4319 17.4163 14.2493 17.3249 14.0935 17.2282C12.5032 16.2182 11.0581 14.902 9.67201 13.199C9.00047 12.3501 8.54919 11.6356 8.22147 10.9104C8.66201 10.5074 9.07031 10.0884 9.46786 9.68546C9.61829 9.53503 9.76871 9.37923 9.91914 9.22881C11.0473 8.10061 11.0473 6.63933 9.91914 5.51114L8.45249 4.04449C8.28594 3.87794 8.11403 3.70603 7.95286 3.53411C7.63052 3.20103 7.29206 2.85719 6.94285 2.53485C6.42173 2.01911 5.79854 1.74512 5.14311 1.74512C4.48769 1.74512 3.85375 2.01911 3.31651 2.53485C3.31114 2.54023 3.31114 2.54023 3.30577 2.5456L1.47917 4.38832C0.791506 5.07598 0.399324 5.91407 0.313366 6.88646C0.18443 8.45519 0.646452 9.91647 1.00103 10.8727C1.87135 13.2205 3.17146 15.3963 5.11088 17.7279C7.46397 20.5376 10.2952 22.7564 13.5294 24.3198C14.765 24.9053 16.4143 25.5984 18.257 25.7166C18.3699 25.7219 18.488 25.7273 18.5955 25.7273C19.8365 25.7273 20.8787 25.2814 21.6953 24.395C21.7007 24.3842 21.7115 24.3789 21.7168 24.3681C21.9962 24.0296 22.3185 23.7234 22.657 23.3957C22.888 23.1754 23.1244 22.9444 23.3554 22.7027C23.8873 22.1493 24.1666 21.5046 24.1666 20.8438C24.1666 20.1777 23.8819 19.5384 23.3393 19.0011L20.3899 16.041ZM22.3132 21.698C22.3078 21.698 22.3692 21.6377 22.3132 21.698C22.1036 21.9237 21.8887 22.1278 21.6577 22.3535C21.3085 22.6866 20.954 23.0358 20.6209 23.4279C20.0783 24.0082 19.439 24.2821 18.6009 24.2821C18.5203 24.2821 18.4343 24.2822 18.3537 24.2768C16.7581 24.1747 15.2754 23.5515 14.1633 23.0196C11.1225 21.5476 8.45249 19.4578 6.2337 16.8092C4.40173 14.6012 3.17683 12.5597 2.36561 10.3677C1.86598 9.03003 1.68332 7.98779 1.7639 7.00465C1.81763 6.37609 2.05938 5.85497 2.50529 5.40906L4.33726 3.57709C4.60051 3.32996 4.87987 3.19565 5.15386 3.19565C5.49232 3.19565 5.76631 3.3998 5.93822 3.57172C5.9436 3.57709 5.94897 3.58246 5.95434 3.58784C6.28205 3.89406 6.59365 4.21103 6.92136 4.54949C7.08791 4.7214 7.25982 4.89332 7.43174 5.07061L8.89839 6.53726C9.46786 7.10673 9.46786 7.63322 8.89839 8.20269C8.74259 8.35849 8.59217 8.51429 8.43637 8.66471C7.98509 9.12673 7.5553 9.55652 7.08791 9.97557C7.07716 9.98631 7.06642 9.99168 7.06105 10.0024C6.59902 10.4645 6.68498 10.9157 6.78168 11.222C6.78706 11.2381 6.79243 11.2542 6.7978 11.2703C7.17924 12.1943 7.71647 13.0647 8.53307 14.1015L8.53844 14.1069C10.0212 15.9335 11.5846 17.3572 13.3091 18.4478C13.5294 18.5875 13.755 18.7003 13.9699 18.8077C14.1633 18.9044 14.346 18.9958 14.5018 19.0925C14.5232 19.1032 14.5447 19.1193 14.5662 19.1301C14.7489 19.2214 14.9208 19.2644 15.0981 19.2644C15.544 19.2644 15.8234 18.985 15.9147 18.8937L17.752 17.0563C17.9347 16.8737 18.2248 16.6534 18.5633 16.6534C18.8963 16.6534 19.1703 16.8629 19.3369 17.0456C19.3423 17.051 19.3423 17.051 19.3476 17.0563L22.3078 20.0165C22.8611 20.5645 22.8611 21.1286 22.3132 21.698Z" fill="#6E6F76"/>
<path d="M22.3132 21.698C22.3078 21.698 22.3692 21.6377 22.3132 21.698ZM22.3132 21.698C22.1036 21.9237 21.8887 22.1278 21.6577 22.3535C21.3085 22.6866 20.954 23.0358 20.6209 23.4279C20.0783 24.0082 19.439 24.2821 18.6009 24.2821C18.5203 24.2821 18.4343 24.2821 18.3537 24.2768C16.7581 24.1747 15.2754 23.5515 14.1633 23.0196C11.1225 21.5476 8.45249 19.4578 6.2337 16.8092C4.40173 14.6012 3.17683 12.5597 2.36561 10.3677C1.86598 9.03003 1.68332 7.98779 1.7639 7.00465C1.81763 6.37609 2.05938 5.85497 2.50529 5.40906L4.33726 3.57709C4.60051 3.32996 4.87987 3.19565 5.15386 3.19565C5.49232 3.19565 5.76631 3.3998 5.93822 3.57172C5.9436 3.57709 5.94897 3.58246 5.95434 3.58784C6.28205 3.89406 6.59365 4.21103 6.92136 4.54949C7.08791 4.7214 7.25982 4.89332 7.43174 5.07061L8.89839 6.53726C9.46786 7.10673 9.46786 7.63322 8.89839 8.20269C8.74259 8.35849 8.59217 8.51429 8.43637 8.66471C7.98509 9.12673 7.5553 9.55652 7.08791 9.97557C7.07716 9.98631 7.06642 9.99168 7.06105 10.0024C6.59902 10.4645 6.68498 10.9157 6.78168 11.222C6.78705 11.2381 6.79243 11.2542 6.7978 11.2703C7.17924 12.1943 7.71647 13.0647 8.53307 14.1015L8.53844 14.1069C10.0212 15.9335 11.5846 17.3572 13.3091 18.4478C13.5294 18.5875 13.755 18.7003 13.9699 18.8077C14.1633 18.9044 14.346 18.9958 14.5018 19.0925C14.5232 19.1032 14.5447 19.1193 14.5662 19.1301C14.7489 19.2214 14.9208 19.2644 15.0981 19.2644C15.544 19.2644 15.8234 18.985 15.9147 18.8937L17.752 17.0563C17.9347 16.8737 18.2248 16.6534 18.5633 16.6534C18.8963 16.6534 19.1703 16.8629 19.3369 17.0456C19.3423 17.051 19.3423 17.051 19.3476 17.0563L22.3078 20.0165C22.8611 20.5645 22.8611 21.1286 22.3132 21.698ZM20.3899 16.041C19.8687 15.4983 19.2402 15.2082 18.574 15.2082C17.9132 15.2082 17.2793 15.493 16.7367 16.0356L15.039 17.7279C14.8993 17.6527 14.7596 17.5828 14.6253 17.513C14.4319 17.4163 14.2493 17.3249 14.0935 17.2282C12.5032 16.2182 11.0581 14.902 9.67201 13.199C9.00047 12.3501 8.54919 11.6356 8.22147 10.9104C8.66201 10.5074 9.07031 10.0884 9.46786 9.68546C9.61829 9.53503 9.76871 9.37923 9.91914 9.22881C11.0473 8.10061 11.0473 6.63933 9.91914 5.51114L8.45249 4.04449C8.28594 3.87794 8.11403 3.70603 7.95286 3.53411C7.63051 3.20103 7.29206 2.85719 6.94285 2.53485C6.42173 2.01911 5.79854 1.74512 5.14311 1.74512C4.48769 1.74512 3.85375 2.01911 3.31651 2.53485C3.31114 2.54023 3.31114 2.54023 3.30577 2.5456L1.47917 4.38832C0.791506 5.07598 0.399324 5.91407 0.313366 6.88646C0.18443 8.45519 0.646452 9.91647 1.00103 10.8727C1.87135 13.2205 3.17146 15.3963 5.11088 17.7279C7.46397 20.5376 10.2952 22.7564 13.5294 24.3198C14.765 24.9053 16.4143 25.5984 18.257 25.7166C18.3699 25.7219 18.488 25.7273 18.5955 25.7273C19.8365 25.7273 20.8787 25.2814 21.6953 24.395C21.7007 24.3842 21.7115 24.3789 21.7168 24.3681C21.9962 24.0296 22.3185 23.7234 22.657 23.3957C22.888 23.1754 23.1244 22.9444 23.3554 22.7027C23.8873 22.1493 24.1666 21.5046 24.1666 20.8438C24.1666 20.1777 23.8819 19.5384 23.3393 19.0011L20.3899 16.041Z" stroke="#6E6F76" stroke-width="0.3"/>
<path d="M14.0289 6.32792C15.4364 6.5643 16.7151 7.23047 17.7358 8.25122C18.7565 9.27197 19.4173 10.5506 19.6591 11.9581C19.7182 12.3127 20.0244 12.5598 20.3736 12.5598C20.4166 12.5598 20.4542 12.5545 20.4972 12.5491C20.8947 12.4846 21.158 12.1086 21.0935 11.711C20.8034 10.008 19.9976 8.45537 18.7673 7.2251C17.537 5.99483 15.9844 5.18898 14.2814 4.89887C13.8838 4.8344 13.5131 5.09765 13.4433 5.48983C13.3734 5.88201 13.6313 6.26345 14.0289 6.32792Z" fill="#6E6F76" stroke="#6E6F76" stroke-width="0.3"/>
<path d="M25.6978 11.5015C25.2197 8.69712 23.8981 6.14525 21.8673 4.1145C19.8366 2.08375 17.2847 0.762146 14.4804 0.284006C14.0882 0.214166 13.7175 0.482784 13.6476 0.874965C13.5832 1.27252 13.8464 1.64321 14.244 1.71305C16.7475 2.13747 19.0307 3.32476 20.8466 5.13524C22.6625 6.9511 23.8444 9.23435 24.2688 11.7379C24.3279 12.0924 24.6341 12.3396 24.9833 12.3396C25.0263 12.3396 25.0639 12.3342 25.1069 12.3288C25.4991 12.2697 25.7677 11.8937 25.6978 11.5015Z" fill="#6E6F76" stroke="#6E6F76" stroke-width="0.3"/>
</svg>
