<svg width="18" height="18" viewBox="0 0 18 18" fill="none" xmlns="http://www.w3.org/2000/svg">
<path d="M14.4905 17.0502C14.3499 17.0502 14.2103 17.0086 14.0905 16.9274L9.56456 13.8574L7.13711 15.604C6.94673 15.7409 6.70134 15.7754 6.48028 15.6964C6.25949 15.6172 6.09182 15.4343 6.03197 15.2075L4.81311 10.5884L0.458013 8.92315C0.183842 8.81826 0.00201159 8.55597 1.65783e-05 8.26242C-0.00197843 7.96887 0.176242 7.7041 0.449083 7.59552L17.0088 1.00629C17.0839 0.974372 17.1634 0.955942 17.2436 0.951002C17.2723 0.949292 17.3011 0.949292 17.3297 0.950907C17.4958 0.960787 17.6589 1.02843 17.7862 1.15326C17.7994 1.16618 17.8119 1.17938 17.8238 1.19316C17.9292 1.31362 17.9872 1.46049 17.9981 1.61011C18.0008 1.64773 18.0006 1.68583 17.9973 1.72392C17.995 1.75109 17.9911 1.77817 17.9856 1.80505L15.1904 16.4711C15.1454 16.7067 14.9851 16.9039 14.7635 16.9958C14.6757 17.0323 14.5829 17.0502 14.4905 17.0502ZM9.96194 12.405L13.9935 15.1396L16.1684 3.72777L8.31312 11.2866L9.94294 12.3922C9.9495 12.3963 9.95577 12.4006 9.96194 12.405ZM6.60587 11.7969L7.14566 13.8423L8.30865 13.0054L6.7858 11.9724C6.71502 11.9245 6.65441 11.8648 6.60587 11.7969ZM2.67295 8.24427L5.66337 9.3876C5.87759 9.46949 6.03928 9.64961 6.0978 9.87134L6.47705 11.3086C6.49443 11.1428 6.56958 10.9868 6.69165 10.8693L14.1766 3.66697L2.67295 8.24427Z" fill="#2D344A"/>
</svg>
