<svg width="25" height="15" viewBox="0 0 25 15" fill="none" xmlns="http://www.w3.org/2000/svg">
<path d="M24.8675 12.8816C24.8372 12.8164 24.809 12.7623 24.7828 12.7189C24.349 11.9377 23.5201 10.9789 22.2966 9.84205L22.2708 9.81602L22.2578 9.80325L22.2447 9.79017H22.2316C21.6763 9.26081 21.3247 8.90489 21.1774 8.72266C20.908 8.37553 20.8476 8.02417 20.9949 7.66815C21.0989 7.39916 21.4897 6.8311 22.1664 5.96319C22.5223 5.50323 22.8042 5.13458 23.0123 4.85685C24.5137 2.86089 25.1646 1.58544 24.9649 1.03001L24.8873 0.900216C24.8352 0.822074 24.7007 0.750587 24.4841 0.685393C24.2669 0.620335 23.9893 0.609576 23.6507 0.652932L19.9021 0.678828C19.8414 0.657309 19.7547 0.659315 19.6417 0.685393C19.5288 0.71147 19.4724 0.724555 19.4724 0.724555L19.4072 0.757153L19.3554 0.796315C19.312 0.82221 19.2642 0.867756 19.2121 0.932859C19.1603 0.997735 19.1169 1.07387 19.0823 1.16063C18.6742 2.21063 18.2101 3.18686 17.6894 4.08928C17.3683 4.62739 17.0734 5.09374 16.8041 5.4886C16.5351 5.88332 16.3095 6.17414 16.1274 6.36056C15.9451 6.54717 15.7805 6.69666 15.6327 6.80959C15.4851 6.92256 15.3724 6.97029 15.2944 6.95283C15.2162 6.93537 15.1426 6.91805 15.0729 6.90072C14.9515 6.82258 14.8538 6.71631 14.7802 6.58181C14.7063 6.44732 14.6565 6.27804 14.6305 6.07412C14.6046 5.87005 14.5892 5.69453 14.5849 5.54695C14.5808 5.39956 14.5827 5.19107 14.5915 4.92209C14.6005 4.65297 14.6046 4.47088 14.6046 4.37541C14.6046 4.04561 14.611 3.68767 14.6239 3.30152C14.637 2.91537 14.6476 2.60941 14.6565 2.38401C14.6654 2.15838 14.6695 1.91967 14.6695 1.66801C14.6695 1.41635 14.6542 1.21899 14.6239 1.07574C14.594 0.932676 14.5481 0.793807 14.4876 0.659178C14.4267 0.524686 14.3376 0.420648 14.2207 0.346791C14.1036 0.273025 13.958 0.214487 13.7847 0.170993C13.3247 0.0669099 12.739 0.0106055 12.0273 0.00185207C10.4134 -0.0154724 9.37631 0.0887477 8.91639 0.314376C8.73417 0.409706 8.56927 0.539958 8.42183 0.704723C8.26559 0.895702 8.24379 0.999923 8.35659 1.01707C8.87732 1.09507 9.24597 1.28167 9.46293 1.57669L9.54112 1.73302C9.60194 1.84581 9.66267 2.0455 9.72344 2.33181C9.78412 2.61812 9.82328 2.93484 9.84052 3.28178C9.88383 3.91535 9.88383 4.4577 9.84052 4.90887C9.79707 5.36021 9.75604 5.71158 9.71687 5.96324C9.67771 6.2149 9.61917 6.41883 9.54112 6.57498C9.46293 6.73117 9.41092 6.82664 9.38484 6.86128C9.3588 6.89593 9.3371 6.91777 9.31987 6.92634C9.20708 6.96956 9.08977 6.99158 8.96837 6.99158C8.84678 6.99158 8.69934 6.93077 8.52582 6.80922C8.35235 6.68768 8.17231 6.52072 7.9857 6.30809C7.7991 6.09541 7.58866 5.7982 7.35427 5.41643C7.12008 5.03465 6.87708 4.58344 6.62542 4.06279L6.4172 3.68521C6.28704 3.4423 6.10924 3.08861 5.88361 2.62445C5.65785 2.16011 5.4583 1.71095 5.28482 1.27707C5.21548 1.09484 5.11131 0.95611 4.97248 0.860644L4.90733 0.821481C4.86402 0.786832 4.7945 0.75004 4.69912 0.710832C4.60361 0.67167 4.50395 0.643586 4.39973 0.626307L0.833215 0.652203C0.468763 0.652203 0.221479 0.734767 0.0912725 0.899669L0.0391624 0.977674C0.0131301 1.02112 0 1.09051 0 1.18602C0 1.28149 0.0260323 1.39866 0.0781424 1.53739C0.598788 2.76104 1.16498 3.94116 1.77671 5.07792C2.38845 6.21467 2.92004 7.13036 3.37116 7.82416C3.82237 8.51846 4.28228 9.17373 4.75091 9.78966C5.21954 10.4058 5.52974 10.8007 5.68151 10.9742C5.83346 11.1479 5.95282 11.2779 6.03958 11.3646L6.36505 11.677C6.57331 11.8853 6.87913 12.1348 7.28265 12.4254C7.68627 12.7162 8.1331 13.0025 8.62338 13.2848C9.11375 13.5666 9.68423 13.7965 10.3351 13.9744C10.9859 14.1524 11.6194 14.2239 12.2355 14.1894H13.7325C14.036 14.1632 14.266 14.0677 14.4224 13.9029L14.4742 13.8377C14.509 13.7859 14.5416 13.7054 14.5717 13.5972C14.6021 13.4887 14.6173 13.3692 14.6173 13.2392C14.6084 12.8662 14.6368 12.5299 14.7017 12.2306C14.7666 11.9313 14.8405 11.7057 14.9232 11.5537C15.0059 11.4019 15.0992 11.2738 15.203 11.17C15.307 11.0659 15.3811 11.0028 15.4246 10.9811C15.4679 10.9593 15.5024 10.9445 15.5284 10.9356C15.7367 10.8662 15.9818 10.9334 16.2641 11.1375C16.5461 11.3414 16.8107 11.5932 17.0582 11.8925C17.3055 12.192 17.6026 12.5281 17.9497 12.9011C18.2969 13.2743 18.6006 13.5518 18.8608 13.7343L19.121 13.8905C19.2948 13.9947 19.5205 14.0901 19.7982 14.1769C20.0754 14.2636 20.3183 14.2853 20.5269 14.242L23.859 14.19C24.1886 14.19 24.445 14.1354 24.6269 14.0271C24.8092 13.9187 24.9175 13.7992 24.9524 13.6692C24.9872 13.5391 24.9891 13.3915 24.959 13.2264C24.9282 13.0618 24.8977 12.9467 24.8675 12.8816Z" fill="white"/>
</svg>
