<svg width="25" height="18" viewBox="0 0 25 18" fill="none" xmlns="http://www.w3.org/2000/svg">
<path d="M24.0256 1.54796C23.1231 0.463746 21.457 0.0214844 18.2751 0.0214844H6.72468C3.46992 0.0214844 1.77556 0.492274 0.876532 1.64659C0 2.77205 0 4.43033 0 6.72542V11.0999C0 15.5462 1.04 17.8037 6.72468 17.8037H18.2752C21.0345 17.8037 22.5635 17.4135 23.5527 16.4566C24.5672 15.4755 25 13.8734 25 11.0999V6.72542C25 4.30505 24.9322 2.63699 24.0256 1.54796ZM16.0501 9.51658L10.8051 12.2871C10.6878 12.3491 10.5596 12.3798 10.4315 12.3798C10.2865 12.3798 10.1419 12.3403 10.0137 12.2619C9.77242 12.1141 9.62508 11.8498 9.62508 11.5647V6.04141C9.62508 5.75678 9.77202 5.4927 10.0128 5.34484C10.2537 5.19699 10.5533 5.18688 10.8032 5.31811L16.0482 8.07079C16.3151 8.21082 16.4827 8.48925 16.4831 8.79303C16.4834 9.09706 16.3165 9.37589 16.0501 9.51658Z" fill="white"/>
</svg>
