<svg width="80" height="80" viewBox="0 0 80 80" fill="none" xmlns="http://www.w3.org/2000/svg">
<rect width="80" height="80" fill="#68B738"/>
<g clip-path="url(#clip0_36_1213)">
<path d="M62.7334 39.1877L58.8245 33.8829L58.8695 27.2929C58.8739 26.6927 58.4861 26.1599 57.9138 25.9786L51.6315 23.9891L47.7998 18.6268C47.4499 18.1367 46.8217 17.9346 46.2522 18.124L40 20.2111L33.7478 18.1235C33.1777 17.934 32.5496 18.1361 32.2002 18.6262L28.369 23.988L22.0862 25.9786C21.5139 26.1593 21.1263 26.6927 21.1306 27.2923L21.1755 33.8824L17.2665 39.1872C16.9112 39.6702 16.9112 40.329 17.2665 40.812L21.1754 46.1168L21.1305 52.7069C21.1261 53.307 21.5138 53.8399 22.0861 54.0211L28.3684 56.0106L32.2001 61.373C32.4624 61.7398 32.8808 61.9463 33.314 61.9463C33.4591 61.9463 33.6047 61.9233 33.7477 61.8757L39.9999 59.7887L46.2521 61.8763C46.8216 62.0663 47.4502 61.8631 47.7997 61.3735L51.6308 56.0117L57.9138 54.0212C58.4861 53.8405 58.8738 53.3071 58.8695 52.7075L58.8245 46.1169L62.7334 40.8121C63.0888 40.3296 63.0888 39.6703 62.7334 39.1877ZM56.3498 44.859C56.1746 45.0972 56.0809 45.3853 56.0831 45.6805L56.1241 51.7158L50.3686 53.5388C50.086 53.6281 49.8402 53.8066 49.6682 54.0482L46.1601 58.9587L40.4336 57.047C40.1522 56.9528 39.8477 56.9528 39.5662 57.047L33.8397 58.9587L30.3311 54.0476C30.1591 53.8066 29.9127 53.6276 29.6306 53.5378L23.8756 51.7153L23.9167 45.6799C23.9189 45.3847 23.8252 45.0968 23.65 44.8585L20.0693 39.9999L23.6496 35.1408C23.8249 34.9026 23.9185 34.6145 23.9163 34.3194L23.8753 28.284L29.6308 26.461C29.9134 26.3718 30.1593 26.1932 30.3312 25.9517L33.8393 21.0412L39.5658 22.9529C39.8472 23.047 40.1517 23.047 40.4332 22.9529L46.1597 21.0412L49.6684 25.9522C49.8403 26.1932 50.0867 26.3722 50.3688 26.4621L56.1238 28.2845L56.0827 34.3199C56.0806 34.6151 56.1742 34.9031 56.3494 35.1414L59.9309 39.9999L56.3498 44.859Z" fill="white"/>
<path d="M46.7331 33.8977L37.4334 43.198L33.2676 39.0322C32.7326 38.4972 31.8663 38.4972 31.3317 39.0322C30.7972 39.5672 30.7967 40.4335 31.3317 40.9681L36.4657 46.1021C36.733 46.3693 37.0834 46.5029 37.4339 46.5029C37.7845 46.5029 38.1344 46.3693 38.4021 46.1021L48.67 35.8342C49.205 35.2992 49.205 34.4328 48.67 33.8983C48.135 33.3637 47.2675 33.3633 46.7331 33.8977Z" fill="white"/>
</g>
<defs>
<clipPath id="clip0_36_1213">
<rect width="46" height="46" fill="white" transform="translate(17 17)"/>
</clipPath>
</defs>
</svg>
