<svg width="80" height="80" viewBox="0 0 80 80" fill="none" xmlns="http://www.w3.org/2000/svg">
<rect width="80" height="80" fill="#68B738"/>
<g clip-path="url(#clip0_36_1223)">
<path d="M39.9992 18C27.8697 18 18 27.8689 18 40C18 52.1311 27.8697 62 39.9992 62C52.1311 62 61.9992 52.1311 61.9992 40C61.9992 27.8689 52.1311 18 39.9992 18ZM39.9992 59.0668C29.4861 59.0668 20.9332 50.5139 20.9332 40C20.9332 29.4861 29.4869 20.9332 39.9992 20.9332C50.5139 20.9332 59.066 29.4861 59.066 40C59.066 50.5139 50.5147 59.0668 39.9992 59.0668Z" fill="white"/>
<path d="M50.8949 38.4073H41.4663V25.9404C41.4663 25.1302 40.8094 24.4734 40.0001 24.4734C39.1915 24.4734 38.5347 25.131 38.5347 25.9404V41.3397H50.8949C51.7043 41.3397 52.3611 40.6837 52.3603 39.8735C52.3603 39.0642 51.7027 38.4073 50.8949 38.4073Z" fill="white"/>
</g>
<defs>
<clipPath id="clip0_36_1223">
<rect width="44" height="44" fill="white" transform="translate(18 18)"/>
</clipPath>
</defs>
</svg>
