<svg width="80" height="80" viewBox="0 0 80 80" fill="none" xmlns="http://www.w3.org/2000/svg">
<rect width="80" height="80" fill="#68B738"/>
<path d="M61.06 37.4475L57.5791 33.363C57.3145 33.0535 57.155 32.6681 57.1236 32.2621L56.6963 26.9131C56.6251 25.9794 56.222 25.1022 55.5599 24.4401C54.8978 23.778 54.0206 23.3749 53.087 23.3037L47.7379 22.8769C47.3317 22.8453 46.946 22.6856 46.6363 22.4208L42.5522 18.9402C41.8417 18.3304 40.9363 17.9951 39.9999 17.9951C39.0636 17.9951 38.1582 18.3304 37.4477 18.9402L33.3638 22.4204C33.0542 22.6853 32.6684 22.8451 32.2622 22.8767L26.913 23.3031C25.9793 23.3743 25.102 23.7775 24.4399 24.4395C23.7777 25.1016 23.3745 25.9788 23.3032 26.9125L22.8769 32.2614C22.8451 32.6676 22.6853 33.0532 22.4203 33.3627L18.9398 37.4475C18.3299 38.158 17.9946 39.0635 17.9946 39.9999C17.9946 40.9363 18.3299 41.8417 18.9398 42.5522L22.4203 46.6367C22.6851 46.9462 22.8448 47.3318 22.8764 47.7378L23.3036 53.0869C23.3747 54.0206 23.7778 54.898 24.4399 55.5602C25.102 56.2223 25.9793 56.6255 26.913 56.6968L32.2616 57.1231C32.668 57.1551 33.0537 57.3149 33.3637 57.5796L37.4477 61.0601C38.1581 61.67 39.0636 62.0054 39.9999 62.0054C40.9363 62.0054 41.8417 61.67 42.5522 61.0601L46.6367 57.5796C46.9462 57.3148 47.3317 57.1551 47.7378 57.1235L53.0869 56.6963C54.0206 56.6252 54.8979 56.2221 55.5601 55.56C56.2223 54.8979 56.6255 54.0206 56.6967 53.0869L57.123 47.7383C57.155 47.332 57.3148 46.9462 57.5796 46.6363L61.06 42.5523C61.67 41.8418 62.0053 40.9363 62.0053 39.9999C62.0053 39.0635 61.67 38.158 61.06 37.4475ZM59.5374 41.2554L56.0574 45.3389C55.5188 45.9684 55.1938 46.7526 55.1293 47.5786L54.703 52.9281C54.668 53.3872 54.4697 53.8185 54.1441 54.144C53.8185 54.4695 53.3871 54.6677 52.9281 54.7026L47.5785 55.1298C46.7529 55.194 45.969 55.5187 45.3398 56.0571L41.2553 59.5375C40.9059 59.8376 40.4606 60.0026 40 60.0026C39.5394 60.0026 39.094 59.8376 38.7446 59.5375L34.6612 56.0575C34.0316 55.5188 33.2474 55.1939 32.4214 55.1294L27.0718 54.7031C26.6128 54.668 26.1814 54.4697 25.8559 54.1441C25.5304 53.8186 25.3323 53.3872 25.2973 52.9281L24.8701 47.5786C24.8059 46.7529 24.4812 45.969 23.9428 45.3398L20.4624 41.2554C20.1623 40.906 19.9973 40.4607 19.9973 40.0001C19.9973 39.5396 20.1623 39.0942 20.4624 38.7449L23.9424 34.6609C24.4811 34.0315 24.8061 33.2474 24.8706 32.4214L25.2968 27.0719C25.332 26.6128 25.5303 26.1815 25.8559 25.856C26.1814 25.5305 26.6128 25.3322 27.0718 25.2971L32.4209 24.8703C33.2468 24.806 34.0309 24.481 34.6601 23.9422L38.7445 20.4625C39.0941 20.1626 39.5394 19.9978 39.9999 19.9978C40.4604 19.9978 40.9057 20.1626 41.2553 20.4625L45.3393 23.9432C45.9686 24.4817 46.7527 24.8065 47.5785 24.8707L52.9281 25.2971C53.3871 25.3322 53.8184 25.5304 54.1439 25.856C54.4694 26.1815 54.6676 26.6128 54.7026 27.0719L55.1298 32.4212C55.1939 33.247 55.5186 34.031 56.0571 34.6603L59.5374 38.7449C59.8375 39.0942 60.0025 39.5396 60.0025 40.0001C60.0025 40.4607 59.8375 40.906 59.5374 41.2554Z" fill="white"/>
<path d="M37.0001 35H34.5C34.2348 35 33.9804 35.1054 33.7929 35.2929C33.6054 35.4805 33.5 35.7348 33.5 36.0001V44C33.5026 44.2636 33.609 44.5154 33.7963 44.7009C33.9835 44.8863 34.2364 44.9904 34.5 44.9904C34.7635 44.9904 35.0164 44.8863 35.2037 44.7009C35.3909 44.5154 35.4974 44.2636 35.5 44V41.5187L38.2475 44.6589C38.3338 44.7586 38.4389 44.8402 38.5568 44.8991C38.6747 44.9579 38.8031 44.993 38.9345 45.0021C39.066 45.0112 39.198 44.9942 39.3229 44.9521C39.4478 44.91 39.5631 44.8437 39.6623 44.7569C39.7615 44.6701 39.8425 44.5645 39.9007 44.4463C39.959 44.328 39.9933 44.1995 40.0016 44.0679C40.01 43.9364 39.9923 43.8045 39.9495 43.6798C39.9067 43.5552 39.8397 43.4402 39.7524 43.3415L37.643 40.9308C38.366 40.7728 39.0051 40.3531 39.4374 39.7524C39.8697 39.1518 40.0647 38.4125 39.985 37.6767C39.9052 36.9409 39.5563 36.2606 39.0053 35.7665C38.4543 35.2724 37.7401 34.9994 37.0001 35ZM37.0001 39.0001H35.5001V37H37.0001C37.1322 36.9987 37.2633 37.0236 37.3857 37.0733C37.5082 37.123 37.6196 37.1965 37.7134 37.2894C37.8073 37.3824 37.8819 37.4931 37.9327 37.6151C37.9836 37.737 38.0098 37.8678 38.0098 38C38.0098 38.1321 37.9836 38.263 37.9327 38.3849C37.8819 38.5069 37.8073 38.6175 37.7134 38.7105C37.6196 38.8035 37.5082 38.877 37.3857 38.9266C37.2633 38.9763 37.1322 39.0012 37.0001 39V39.0001Z" fill="white"/>
<path d="M45.5001 37C45.7636 36.9974 46.0155 36.891 46.201 36.7037C46.3864 36.5165 46.4904 36.2636 46.4904 36C46.4904 35.7365 46.3864 35.4836 46.201 35.2963C46.0155 35.1091 45.7636 35.0026 45.5001 35H42C41.7348 35 41.4804 35.1054 41.2929 35.2929C41.1054 35.4805 41 35.7348 41 36.0001V44C41 44.2653 41.1054 44.5196 41.2929 44.7072C41.4804 44.8947 41.7348 45.0001 42 45.0001H45.5C45.7635 44.9975 46.0154 44.891 46.2009 44.7038C46.3863 44.5165 46.4903 44.2636 46.4903 44.0001C46.4903 43.7365 46.3863 43.4836 46.2009 43.2964C46.0154 43.1091 45.7635 43.0026 45.5 43.0001H43.0001V41H45C45.1322 41.0013 45.2632 40.9764 45.3857 40.9267C45.5081 40.877 45.6195 40.8036 45.7134 40.7106C45.8073 40.6176 45.8818 40.5069 45.9327 40.385C45.9836 40.263 46.0097 40.1322 46.0097 40C46.0097 39.8679 45.9836 39.7371 45.9327 39.6151C45.8818 39.4932 45.8073 39.3825 45.7134 39.2895C45.6195 39.1965 45.5081 39.1231 45.3857 39.0734C45.2632 39.0237 45.1322 38.9988 45 39.0001H43.0001V37H45.5001Z" fill="white"/>
<path d="M31.5 35H28C27.7348 35 27.4804 35.1054 27.2929 35.2929C27.1054 35.4805 27 35.7348 27 36.0001V44C27.0026 44.2636 27.109 44.5154 27.2963 44.7009C27.4835 44.8863 27.7364 44.9904 28 44.9904C28.2635 44.9904 28.5164 44.8863 28.7037 44.7009C28.8909 44.5154 28.9974 44.2636 29 44V41H31C31.2636 40.9975 31.5154 40.891 31.7009 40.7037C31.8863 40.5165 31.9904 40.2636 31.9904 40C31.9904 39.7365 31.8863 39.4836 31.7009 39.2963C31.5154 39.1091 31.2636 39.0026 31 39.0001H29.0001V37H31.5001C31.6322 37.0013 31.7633 36.9764 31.8858 36.9267C32.0082 36.877 32.1196 36.8035 32.2135 36.7106C32.3074 36.6176 32.3819 36.5069 32.4328 36.3849C32.4836 36.263 32.5098 36.1322 32.5098 36C32.5098 35.8679 32.4836 35.737 32.4328 35.6151C32.3819 35.4931 32.3074 35.3825 32.2135 35.2895C32.1196 35.1965 32.0082 35.123 31.8858 35.0734C31.7633 35.0237 31.6322 34.9988 31.5001 35H31.5Z" fill="white"/>
<path d="M52 37C52.1321 37.0013 52.2632 36.9764 52.3857 36.9267C52.5081 36.877 52.6195 36.8035 52.7134 36.7106C52.8073 36.6176 52.8818 36.5069 52.9327 36.3849C52.9835 36.263 53.0097 36.1322 53.0097 36C53.0097 35.8679 52.9835 35.737 52.9327 35.6151C52.8818 35.4931 52.8073 35.3825 52.7134 35.2895C52.6195 35.1965 52.5081 35.123 52.3857 35.0734C52.2632 35.0237 52.1321 34.9988 52 35H48.5C48.2348 35 47.9805 35.1054 47.7929 35.2929C47.6054 35.4804 47.5 35.7348 47.5 36V43.9999C47.5 44.2652 47.6054 44.5195 47.7929 44.7071C47.9804 44.8946 48.2348 45 48.5 45H52C52.1321 45.0012 52.2632 44.9763 52.3857 44.9266C52.5081 44.877 52.6195 44.8035 52.7134 44.7105C52.8073 44.6175 52.8818 44.5069 52.9327 44.3849C52.9835 44.263 53.0097 44.1321 53.0097 44C53.0097 43.8678 52.9835 43.737 52.9327 43.6151C52.8818 43.4931 52.8073 43.3824 52.7134 43.2894C52.6195 43.1965 52.5081 43.123 52.3857 43.0733C52.2632 43.0236 52.1321 42.9987 52 43H49.5V41H51.4999C51.7635 40.9975 52.0153 40.891 52.2008 40.7037C52.3863 40.5165 52.4903 40.2636 52.4903 40C52.4903 39.7365 52.3863 39.4836 52.2008 39.2963C52.0153 39.1091 51.7635 39.0026 51.4999 39.0001H49.5V37H52Z" fill="white"/>
</svg>
