<svg width="83" height="83" viewBox="0 0 83 83" fill="none" xmlns="http://www.w3.org/2000/svg">
<rect x="69.7197" y="6.64001" width="7.47" height="74.7" fill="#E7E7E9"/>
<path d="M63.7204 67.8726C64.0215 67.63 64.2145 67.2584 64.2145 66.8415C64.2145 66.8298 64.2145 6.62234 64.2145 6.62234C64.2145 5.8907 63.6217 5.29787 62.89 5.29787H24.5714C23.6264 2.23341 20.7682 0 17.3979 0C14.0818 0 11.1801 2.20992 10.2256 5.29787H5.98169C5.25006 5.29787 4.65723 5.8907 4.65723 6.62234V81.6755C4.65723 82.4072 5.25006 83 5.98169 83H48.0445C48.4728 83 48.844 82.8072 49.0868 82.5066L63.7204 67.8726ZM49.3805 78.4664V68.166H59.6808L49.3805 78.4664ZM17.3979 2.64894C19.2809 2.64894 20.916 3.72705 21.7213 5.29787H13.0741C13.8872 3.71769 15.5421 2.64894 17.3979 2.64894ZM7.30616 7.94681H22.2543V17.2181C22.2543 18.4354 21.2641 19.4255 20.0468 19.4255C18.8296 19.4255 17.8394 18.4354 17.8394 17.2181V11.9202C17.8394 11.1886 17.2466 10.5957 16.5149 10.5957C15.7833 10.5957 15.1905 11.1886 15.1905 11.9202V17.2181C15.1905 19.8958 17.3691 22.0745 20.0468 22.0745C22.7246 22.0745 24.9032 19.8958 24.9032 17.2181V7.94681H61.5656V65.517H48.056C47.3244 65.517 46.7315 66.1099 46.7315 66.8415V80.3511H7.30616V7.94681Z" fill="#616C8A"/>
<path d="M48.1396 66.4H53.9496L61.8346 67.23L49.7996 80.51L48.1396 77.19V66.4Z" fill="#E7E7E9"/>
<path d="M63.7204 67.8726C64.0215 67.63 64.2145 67.2584 64.2145 66.8415C64.2145 66.8298 64.2145 6.62234 64.2145 6.62234C64.2145 5.8907 63.6217 5.29787 62.89 5.29787H24.5714C23.6264 2.23341 20.7682 0 17.3979 0C14.0818 0 11.1801 2.20992 10.2256 5.29787H5.98169C5.25006 5.29787 4.65723 5.8907 4.65723 6.62234V81.6755C4.65723 82.4072 5.25006 83 5.98169 83H48.0445C48.4728 83 48.844 82.8072 49.0868 82.5066L63.7204 67.8726ZM49.3805 78.4664V68.166H59.6808L49.3805 78.4664ZM17.3979 2.64894C19.2809 2.64894 20.916 3.72705 21.7213 5.29787H13.0741C13.8872 3.71769 15.5421 2.64894 17.3979 2.64894ZM7.30616 7.94681H22.2543V17.2181C22.2543 18.4354 21.2641 19.4255 20.0468 19.4255C18.8296 19.4255 17.8394 18.4354 17.8394 17.2181V11.9202C17.8394 11.1886 17.2466 10.5957 16.5149 10.5957C15.7833 10.5957 15.1905 11.1886 15.1905 11.9202V17.2181C15.1905 19.8958 17.3691 22.0745 20.0468 22.0745C22.7246 22.0745 24.9032 19.8958 24.9032 17.2181V7.94681H61.5656V65.517H48.056C47.3244 65.517 46.7315 66.1099 46.7315 66.8415V80.3511H7.30616V7.94681Z" fill="#616C8A"/>
<path d="M52.2942 61.0138C53.0259 61.0138 53.6187 60.421 53.6187 59.6893C53.6187 58.9577 53.0259 58.3649 52.2942 58.3649H16.5774C15.8458 58.3649 15.2529 58.9577 15.2529 59.6893C15.2529 60.421 15.8458 61.0138 16.5774 61.0138H52.2942Z" fill="#616C8A"/>
<path d="M16.5774 53.067H52.2942C53.0259 53.067 53.6187 52.4742 53.6187 51.7426C53.6187 51.0109 53.0259 50.4181 52.2942 50.4181H16.5774C15.8458 50.4181 15.2529 51.0109 15.2529 51.7426C15.2529 52.4742 15.8458 53.067 16.5774 53.067Z" fill="#616C8A"/>
<path d="M16.5774 45.1202H52.2942C53.0259 45.1202 53.6187 44.5274 53.6187 43.7958C53.6187 43.0641 53.0259 42.4713 52.2942 42.4713H16.5774C15.8458 42.4713 15.2529 43.0641 15.2529 43.7958C15.2529 44.5274 15.8458 45.1202 16.5774 45.1202Z" fill="#2D344A"/>
<path d="M16.5774 37.1734H52.2942C53.0259 37.1734 53.6187 36.5805 53.6187 35.8489C53.6187 35.1172 53.0259 34.5244 52.2942 34.5244H16.5774C15.8458 34.5244 15.2529 35.1172 15.2529 35.8489C15.2529 36.5805 15.8458 37.1734 16.5774 37.1734Z" fill="#2D344A"/>
<path d="M16.5774 29.2266H52.2942C53.0259 29.2266 53.6187 28.6337 53.6187 27.9021C53.6187 27.1705 53.0259 26.5776 52.2942 26.5776H16.5774C15.8458 26.5776 15.2529 27.1705 15.2529 27.9021C15.2529 28.6337 15.8458 29.2266 16.5774 29.2266Z" fill="#2D344A"/>
<path d="M69.9534 5.29785H68.1874C67.4558 5.29785 66.863 5.89068 66.863 6.62232C66.863 7.35396 67.4558 7.94679 68.1874 7.94679H68.6289V80.351H54.4885C53.7569 80.351 53.1641 80.9439 53.1641 81.6755C53.1641 82.4071 53.7569 83 54.4885 83H69.9534C70.685 83 71.2778 82.4071 71.2778 81.6755V6.62232C71.2778 5.89068 70.685 5.29785 69.9534 5.29785Z" fill="#616C8A"/>
<path d="M77.0178 5.29785H69.3843C68.6526 5.29785 68.0598 5.89068 68.0598 6.62232C68.0598 7.35396 68.6526 7.94679 69.3843 7.94679H75.6933V80.351H70.2143C69.4826 80.351 68.8898 80.9439 68.8898 81.6755C68.8898 82.4071 69.4826 83 70.2143 83H77.0178C77.7494 83 78.3423 82.4071 78.3423 81.6755V6.62232C78.3423 5.89068 77.7494 5.29785 77.0178 5.29785Z" fill="#616C8A"/>
</svg>
