<svg width="96" height="85" viewBox="0 0 96 85" fill="none" xmlns="http://www.w3.org/2000/svg">
<rect x="29" y="20" width="38" height="13" fill="#E7E7E9"/>
<rect x="49" y="42" width="29" height="5" fill="#E7E7E9"/>
<rect x="4" y="26" width="88" height="6" fill="#E7E7E9"/>
<rect x="3" y="77" width="89" height="6" fill="#E7E7E9"/>
<rect width="51" height="5" transform="matrix(-4.37114e-08 1 1 4.37114e-08 4 32)" fill="#E7E7E9"/>
<rect width="54" height="5" transform="matrix(-4.37114e-08 1 1 4.37114e-08 88 28)" fill="#E7E7E9"/>
<ellipse cx="48" cy="19.5" rx="7" ry="6.5" fill="#E7E7E9"/>
<path fill-rule="evenodd" clip-rule="evenodd" d="M68.9831 24.7862H90.1875C92.4621 24.7862 94.3125 26.6368 94.3125 28.9112V80.53C94.3125 82.8045 92.4619 84.655 90.1875 84.655H5.8125C3.53794 84.655 1.6875 82.8045 1.6875 80.53V28.9112C1.6875 26.6367 3.53794 24.7862 5.8125 24.7862H27.0169V21.3105C27.0169 19.7597 28.2786 18.498 29.8294 18.498H39.6362C40.2688 14.4514 43.7784 11.3451 48 11.3451C52.2216 11.3451 55.7312 14.4514 56.3638 18.498H66.1706C67.7214 18.498 68.9831 19.7597 68.9831 21.3105V24.7862ZM29.8296 35.4385C28.4184 35.4385 27.2501 34.3928 27.0504 33.0362H9.9375V76.405H86.0625V33.0362H68.9499C68.7503 34.3928 67.5819 35.4385 66.1708 35.4385H29.8296ZM29.8294 21.123C29.7277 21.123 29.6419 21.2089 29.6419 21.3105V32.626C29.6419 32.7276 29.7277 32.8135 29.8294 32.8135H66.1704C66.2721 32.8135 66.3579 32.7276 66.3579 32.626V21.3105C66.3579 21.2089 66.2721 21.123 66.1704 21.123H55.1528C54.4279 21.123 53.8403 20.5354 53.8403 19.8105C53.8403 16.5902 51.2201 13.9701 47.9998 13.9701C44.7795 13.9701 42.1594 16.59 42.1594 19.8105C42.1594 20.5354 41.5718 21.123 40.8469 21.123H29.8294ZM90.1875 82.03C91.0147 82.03 91.6875 81.357 91.6875 80.53V28.9112C91.6875 28.0842 91.0146 27.4112 90.1875 27.4112H68.9831V30.4112H87.375C88.0999 30.4112 88.6875 30.9988 88.6875 31.7237V77.7175C88.6875 78.4423 88.0999 79.03 87.375 79.03H8.625C7.90013 79.03 7.3125 78.4423 7.3125 77.7175V31.7237C7.3125 30.9988 7.90013 30.4112 8.625 30.4112H27.0169V27.4112H5.8125C4.98544 27.4112 4.3125 28.0842 4.3125 28.9112V80.53C4.3125 81.357 4.98544 82.03 5.8125 82.03H90.1875ZM49.3219 53.3846C48.597 53.3846 48.0094 53.9723 48.0094 54.6971C48.0094 55.422 48.597 56.0096 49.3219 56.0096H78.0938C78.8186 56.0096 79.4062 55.422 79.4062 54.6971C79.4062 53.9723 78.8186 53.3846 78.0938 53.3846H49.3219ZM49.3219 60.952C48.597 60.952 48.0094 61.5396 48.0094 62.2645C48.0094 62.9893 48.597 63.577 49.3219 63.577H78.0938C78.8186 63.577 79.4062 62.9893 79.4062 62.2645C79.4062 61.5396 78.8186 60.952 78.0938 60.952H49.3219ZM49.3219 68.5195C48.597 68.5195 48.0094 69.1071 48.0094 69.832C48.0094 70.5568 48.597 71.1445 49.3219 71.1445H78.0938C78.8186 71.1445 79.4062 70.5568 79.4062 69.832C79.4062 69.1071 78.8186 68.5195 78.0938 68.5195H49.3219ZM48 17.748C46.8639 17.748 45.9375 18.6745 45.9375 19.8105C45.9375 20.9466 46.8639 21.873 48 21.873C49.1361 21.873 50.0625 20.9466 50.0625 19.8105C50.0625 18.6745 49.1361 17.748 48 17.748ZM78.0938 48.4423H49.3219C48.597 48.4423 48.0094 47.8549 48.0094 47.1298V41.1351C48.0094 40.4102 48.597 39.8226 49.3219 39.8226H78.0938C78.8186 39.8226 79.4062 40.4102 79.4062 41.1351V47.1298C79.4062 47.8547 78.8186 48.4423 78.0938 48.4423ZM76.7812 42.4478H50.6344V45.8175H76.7812V42.4478Z" fill="#616C8A"/>
<path d="M28.4602 46.0789C30.4398 46.0789 32.3749 46.6607 34.0209 47.7508C35.6669 48.841 36.9498 50.3905 37.7073 52.2033C38.4649 54.0162 38.6631 56.011 38.2769 57.9355C37.8907 59.86 36.9374 61.6278 35.5376 63.0153C33.6606 64.8759 31.1147 65.9211 28.4602 65.9211C25.8056 65.9211 23.2598 64.8759 21.3828 63.0153C19.5057 61.1547 18.4512 58.6312 18.4512 56C18.4512 53.3687 19.5057 50.8452 21.3828 48.9846C22.3101 48.0606 23.4131 47.3279 24.6279 46.8292C25.8427 46.3304 27.1453 46.0754 28.4602 46.0789ZM28.4602 43.7894C21.6571 43.7894 16.1416 49.2565 16.1416 56C16.1416 62.7434 21.6571 68.2105 28.4602 68.2105C35.2633 68.2105 40.7788 62.7434 40.7788 56C40.7788 49.2565 35.2633 43.7894 28.4602 43.7894V43.7894Z" fill="#2D344A"/>
<path d="M33.9308 57.4533H28.4605C28.1542 57.4533 27.8605 57.3327 27.6439 57.118C27.4273 56.9033 27.3057 56.6122 27.3057 56.3086V48.2253C27.3057 47.9217 27.4273 47.6305 27.6439 47.4159C27.8605 47.2012 28.1542 47.0806 28.4605 47.0806C28.7668 47.0806 29.0606 47.2012 29.2771 47.4159C29.4937 47.6305 29.6154 47.9217 29.6154 48.2253V55.1653H33.9308C34.237 55.1653 34.5308 55.2859 34.7474 55.5006C34.9639 55.7152 35.0856 56.0064 35.0856 56.31C35.0856 56.6136 34.9639 56.9048 34.7474 57.1195C34.5308 57.3341 34.237 57.4547 33.9308 57.4547V57.4533Z" fill="#2D344A"/>
</svg>
