<svg width="95" height="85" viewBox="0 0 95 85" fill="none" xmlns="http://www.w3.org/2000/svg">
<rect width="87" height="6" transform="matrix(1 0 0 -1 4 32)" fill="#E7E7E9"/>
<rect width="38" height="14" transform="matrix(1 0 0 -1 28 34)" fill="#E7E7E9"/>
<rect width="28" height="6" transform="matrix(1 0 0 -1 49 47)" fill="#E7E7E9"/>
<rect width="86" height="5" transform="matrix(1 0 0 -1 4 83)" fill="#E7E7E9"/>
<rect width="56" height="5" transform="matrix(-4.37114e-08 1 1 4.37114e-08 4 27)" fill="#E7E7E9"/>
<rect width="54" height="6" transform="matrix(-4.37114e-08 1 1 4.37114e-08 86 28)" fill="#E7E7E9"/>
<ellipse cx="47.5" cy="19.5" rx="7.5" ry="6.5" fill="#E7E7E9"/>
<path d="M89.248 24.7862H68.2646V21.3105C68.2646 19.7597 67.016 18.498 65.4813 18.498H55.7767C55.1507 14.4514 51.6776 11.3451 47.5 11.3451C43.3224 11.3451 39.8493 14.4514 39.2233 18.498H29.5187C27.984 18.498 26.7354 19.7597 26.7354 21.3105V24.7862H5.75195C3.50108 24.7862 1.66992 26.6367 1.66992 28.9112V80.53C1.66992 82.8045 3.50108 84.655 5.75195 84.655H89.248C91.4987 84.655 93.3301 82.8045 93.3301 80.53V28.9112C93.3301 26.6368 91.4989 24.7862 89.248 24.7862ZM26.7687 33.0362C26.9663 34.3928 28.1224 35.4385 29.5188 35.4385H65.4815C66.878 35.4385 68.0341 34.3928 68.2317 33.0362H85.166V76.405H9.83398V33.0362H26.7687ZM29.3331 21.3105C29.3331 21.2089 29.4181 21.123 29.5187 21.123H40.4214C41.1387 21.123 41.7202 20.5354 41.7202 19.8105C41.7202 16.59 44.313 13.9701 47.4998 13.9701C50.6866 13.9701 53.2794 16.5902 53.2794 19.8105C53.2794 20.5354 53.8609 21.123 54.5782 21.123H65.4812C65.5817 21.123 65.6667 21.2089 65.6667 21.3105V32.626C65.6667 32.7276 65.5817 32.8135 65.4812 32.8135H29.5187C29.4181 32.8135 29.3331 32.7276 29.3331 32.626V21.3105ZM90.7324 80.53C90.7324 81.357 90.0667 82.03 89.248 82.03H5.75195C4.93351 82.03 4.26758 81.357 4.26758 80.53V28.9112C4.26758 28.0842 4.93351 27.4112 5.75195 27.4112H26.7354V30.4112H8.53516C7.81783 30.4112 7.23633 30.9988 7.23633 31.7237V77.7175C7.23633 78.4423 7.81783 79.03 8.53516 79.03H86.4648C87.1822 79.03 87.7637 78.4423 87.7637 77.7175V31.7237C87.7637 30.9988 87.1822 30.4112 86.4648 30.4112H68.2646V27.4112H89.248C90.0665 27.4112 90.7324 28.0842 90.7324 28.9112V80.53ZM47.5093 54.6972C47.5093 53.9723 48.0908 53.3847 48.8081 53.3847H77.2803C77.9976 53.3847 78.5791 53.9723 78.5791 54.6972C78.5791 55.422 77.9976 56.0097 77.2803 56.0097H48.8081C48.0908 56.0097 47.5093 55.422 47.5093 54.6972ZM47.5093 62.2645C47.5093 61.5396 48.0908 60.952 48.8081 60.952H77.2803C77.9976 60.952 78.5791 61.5396 78.5791 62.2645C78.5791 62.9893 77.9976 63.577 77.2803 63.577H48.8081C48.0908 63.577 47.5093 62.9893 47.5093 62.2645ZM47.5093 69.832C47.5093 69.1071 48.0908 68.5195 48.8081 68.5195H77.2803C77.9976 68.5195 78.5791 69.1071 78.5791 69.832C78.5791 70.5568 77.9976 71.1445 77.2803 71.1445H48.8081C48.0908 71.1445 47.5093 70.5568 47.5093 69.832ZM45.459 19.8105C45.459 18.6745 46.3758 17.748 47.5 17.748C48.6242 17.748 49.541 18.6745 49.541 19.8105C49.541 20.9466 48.6242 21.873 47.5 21.873C46.3758 21.873 45.459 20.9466 45.459 19.8105ZM20.1122 72.0977C22.3295 72.9225 25.2852 73.3768 28.4349 73.3768C31.5847 73.3768 34.5403 72.9225 36.7576 72.0977C40.4182 70.7357 41.1868 68.721 41.1868 67.2707C41.1868 60.1654 35.4665 54.385 28.4352 54.385C21.4036 54.385 15.683 60.1654 15.683 67.2707C15.683 68.721 16.4515 70.7357 20.1122 72.0977ZM28.4352 57.01C34.0341 57.01 38.5891 61.6129 38.5891 67.2707C38.5891 69.1902 34.0339 70.7518 28.4349 70.7518C22.8358 70.7518 18.2806 69.1902 18.2806 67.2707C18.2806 61.6129 22.836 57.01 28.4352 57.01ZM28.4352 53.145C32.0697 53.145 35.0268 50.1567 35.0268 46.4835C35.0268 42.8108 32.0697 39.8228 28.4352 39.8228C24.8002 39.8228 21.8429 42.811 21.8429 46.4835C21.8431 50.1568 24.8004 53.145 28.4352 53.145ZM28.4352 42.4478C30.6375 42.4478 32.4291 44.2583 32.4291 46.4835C32.4291 48.7093 30.6375 50.52 28.4352 50.52C26.2326 50.52 24.4406 48.7093 24.4406 46.4835C24.4408 44.2583 26.2326 42.4478 28.4352 42.4478ZM48.8081 48.4423H77.2803C77.9976 48.4423 78.5791 47.8547 78.5791 47.1298V41.1351C78.5791 40.4102 77.9976 39.8226 77.2803 39.8226H48.8081C48.0908 39.8226 47.5093 40.4102 47.5093 41.1351V47.1298C47.5093 47.8549 48.0908 48.4423 48.8081 48.4423ZM50.1069 42.4478H75.9814V45.8175H50.1069V42.4478Z" fill="#616C8A"/>
<path fill-rule="evenodd" clip-rule="evenodd" d="M20.112 72.0977C22.3293 72.9225 25.2851 73.3768 28.4348 73.3768C31.5846 73.3768 34.5402 72.9225 36.7575 72.0977C40.4181 70.7357 41.1867 68.721 41.1867 67.2707C41.1867 60.1654 35.4664 54.3849 28.4351 54.3849C21.4035 54.3849 15.6829 60.1654 15.6829 67.2707C15.6829 68.721 16.4514 70.7357 20.112 72.0977ZM28.4351 57.0099C34.034 57.0099 38.589 61.6129 38.589 67.2707C38.589 69.1901 34.0338 70.7518 28.4348 70.7518C22.8357 70.7518 18.2805 69.1901 18.2805 67.2707C18.2805 61.6129 22.8359 57.0099 28.4351 57.0099ZM28.4351 53.145C32.0696 53.145 35.0267 50.1566 35.0267 46.4835C35.0267 42.8108 32.0696 39.8228 28.4351 39.8228C24.8001 39.8228 21.8428 42.8109 21.8428 46.4835C21.843 50.1568 24.8003 53.145 28.4351 53.145ZM28.4351 42.4478C30.6374 42.4478 32.429 44.2583 32.429 46.4835C32.429 48.7093 30.6374 50.52 28.4351 50.52C26.2325 50.52 24.4405 48.7093 24.4405 46.4835C24.4407 44.2583 26.2325 42.4478 28.4351 42.4478Z" fill="#2D344A"/>
</svg>
