<svg width="78" height="78" viewBox="0 0 78 78" fill="none" xmlns="http://www.w3.org/2000/svg">
<g clip-path="url(#clip0_36_1448)">
<rect x="55.5957" y="1.65955" width="13.2766" height="74.6809" fill="#E7E7E9"/>
<path d="M33.1914 62.234H70.1169C72.1792 62.234 73.851 63.9058 73.851 65.9681C73.851 68.0303 72.1792 69.7021 70.1169 69.7021H33.1914V62.234Z" fill="#E7E7E9"/>
<path d="M70.4138 60.7042H70.2049V3.22421C70.2049 1.44667 68.7594 0 66.9825 0C60.994 0 12.0173 0 5.81227 0C4.03473 0 2.58984 1.44667 2.58984 3.22243V15.6063C2.58984 16.2425 3.10638 16.759 3.74313 16.759C4.37929 16.759 4.89583 16.2425 4.89583 15.6063V3.22243C4.89583 2.71838 5.30644 2.30598 5.81227 2.30598H53.5595C54.0654 2.30598 54.4754 2.71838 54.4754 3.22421V60.7042H33.4656C33.3085 60.7042 33.1532 60.7364 33.0086 60.7982L25.442 64.0588C24.0388 64.6794 24.1191 66.9366 25.442 67.4966L33.0086 70.7571C33.1532 70.819 33.3085 70.8512 33.4656 70.8512H54.4754V74.7776C54.4754 75.2834 54.0654 75.694 53.5595 75.694C52.9109 75.694 6.46152 75.694 5.81227 75.694C5.30644 75.694 4.89583 75.2834 4.89583 74.7776V20.2183C4.89583 19.5821 4.37929 19.0656 3.74313 19.0656C3.10638 19.0656 2.58984 19.5821 2.58984 20.2183V74.7776C2.58984 76.5551 4.03473 78 5.81227 78H66.9825C68.7594 78 70.2049 76.5551 70.2049 74.7776V70.8512C73.4315 70.8512 75.4869 68.4238 75.4869 65.7774C75.4869 62.981 73.2119 60.7042 70.4138 60.7042ZM32.3189 67.9483L27.282 65.7774L32.3189 63.6071V67.9483ZM66.9825 2.30598C67.4883 2.30598 67.8989 2.71838 67.8989 3.22421V60.7042H63.494V3.22421C63.494 2.90584 63.4476 2.59639 63.3601 2.30598H66.9825ZM60.2716 2.30598C60.7756 2.30598 61.188 2.71838 61.188 3.22421V60.7042H56.7814V3.22421C56.7814 2.90584 56.7355 2.59639 56.6481 2.30598H60.2716ZM61.188 74.7776C61.188 75.2834 60.7756 75.694 60.2716 75.694H56.6493C56.7355 75.4036 56.7814 75.0959 56.7814 74.7776V70.8512H61.188V74.7776ZM67.8989 74.7776C67.8989 75.2834 67.4883 75.694 66.9825 75.694H63.3619C63.4476 75.4036 63.494 75.0959 63.494 74.7776V70.8512H67.8989V74.7776ZM70.2049 68.5452C56.8123 68.5452 47.9883 68.5452 34.6249 68.5452V66.9307H58.0703C58.7071 66.9307 59.223 66.4147 59.223 65.778C59.223 65.1412 58.7071 64.6247 58.0703 64.6247H34.6249V63.0102H70.4138C71.5284 63.0102 72.4883 63.6737 72.9262 64.6247H62.6823C62.045 64.6247 61.529 65.1412 61.529 65.778C61.529 66.4147 62.045 66.9307 62.6823 66.9307H72.9262C72.4787 67.9025 71.5766 68.5452 70.2049 68.5452Z" fill="#616C8A"/>
<path d="M48.8192 30.8132H10.5517C9.91498 30.8132 9.39844 31.3292 9.39844 31.9659C9.39844 32.6027 9.91498 33.1192 10.5517 33.1192H48.8192C49.4559 33.1192 49.9725 32.6027 49.9725 31.9659C49.9725 31.3292 49.4559 30.8132 48.8192 30.8132Z" fill="#616C8A"/>
<path d="M48.8196 39.8652H39.7629C39.1256 39.8652 38.6096 40.3812 38.6096 41.0179C38.6096 41.6547 39.1256 42.1712 39.7629 42.1712H48.8196C49.4564 42.1712 49.9729 41.6547 49.9729 41.0179C49.9729 40.3812 49.4564 39.8652 48.8196 39.8652Z" fill="#616C8A"/>
<path d="M10.5517 42.1712H35.1499C35.7866 42.1712 36.3032 41.6547 36.3032 41.0179C36.3032 40.3812 35.7866 39.8652 35.1499 39.8652H10.5517C9.91498 39.8652 9.39844 40.3812 9.39844 41.0179C9.39844 41.6547 9.91498 42.1712 10.5517 42.1712Z" fill="#616C8A"/>
<path d="M10.5517 51.2232H48.8192C49.4559 51.2232 49.9725 50.7067 49.9725 50.0699C49.9725 49.4332 49.4559 48.9172 48.8192 48.9172H10.5517C9.91498 48.9172 9.39844 49.4332 9.39844 50.0699C9.39844 50.7067 9.91498 51.2232 10.5517 51.2232Z" fill="#616C8A"/>
<path d="M26.9528 7.33032H12.0981C10.5562 7.33032 9.30176 8.58478 9.30176 10.1267V22.3284C9.30176 23.8703 10.5562 25.1248 12.0981 25.1248H26.9534C28.4953 25.1248 29.7491 23.8703 29.7491 22.3284V10.1267C29.7491 8.58478 28.4947 7.33032 26.9528 7.33032ZM15.752 22.8188C16.9427 20.6783 18.2716 19.5696 18.7036 19.2447C19.2362 19.3441 19.7802 19.3506 20.3473 19.2447C20.7805 19.5702 22.1087 20.6794 23.2989 22.8188H15.752ZM17.373 14.8636C17.373 13.6764 18.3388 12.7112 19.5255 12.7112C20.7127 12.7112 21.6779 13.6764 21.6779 14.8636C21.6779 16.0502 20.7127 17.0161 19.5255 17.0161C18.3388 17.0161 17.373 16.0502 17.373 14.8636ZM27.4432 22.3284C27.4432 22.5945 27.2188 22.8188 26.9528 22.8188H25.8697C25.7912 22.5599 24.6444 20.0653 22.5723 18.114C25.5109 15.3581 23.5554 10.4052 19.5255 10.4052C15.4967 10.4052 13.5388 15.3569 16.4786 18.114C14.5052 19.9725 13.2942 22.4451 13.1806 22.8188H12.0981C11.8321 22.8188 11.6077 22.5945 11.6077 22.3284V10.1267C11.6077 9.86066 11.8321 9.63631 12.0981 9.63631H26.9528C27.2188 9.63631 27.4432 9.86066 27.4432 10.1267V22.3284Z" fill="#2D344A"/>
</g>
<defs>
<clipPath id="clip0_36_1448">
<rect width="78" height="78" fill="white"/>
</clipPath>
</defs>
</svg>
