<svg width="78" height="78" viewBox="0 0 78 78" fill="none" xmlns="http://www.w3.org/2000/svg">
<rect x="3.12012" y="13.26" width="39.78" height="3.12" fill="#E7E7E9"/>
<path d="M3.12012 7.83997C3.12012 4.8024 5.58255 2.33997 8.62012 2.33997H38.9001C41.1093 2.33997 42.9001 4.13083 42.9001 6.33997V9.91996C42.9001 10.4722 42.4524 10.92 41.9001 10.92H4.12012C3.56783 10.92 3.12012 10.4723 3.12012 9.91997V7.83997Z" fill="#E7E7E9"/>
<path d="M31.2 29.6801C31.2 26.6425 33.6624 24.1801 36.7 24.1801H71.6599C73.8691 24.1801 75.66 25.9709 75.66 28.1801V30.2001C75.66 30.7523 75.2122 31.2001 74.66 31.2001H32.2C31.6477 31.2001 31.2 30.7523 31.2 30.2001V29.6801Z" fill="#E7E7E9"/>
<rect x="3.12012" y="61.62" width="39.78" height="3.12" fill="#E7E7E9"/>
<path d="M3.12012 66.3H42.9001V71.88C42.9001 73.5369 41.557 74.88 39.9001 74.88H7.12011C4.91098 74.88 3.12012 73.0892 3.12012 70.88V66.3Z" fill="#E7E7E9"/>
<rect x="42.9004" y="15.6001" width="8.58" height="3.12" transform="rotate(90 42.9004 15.6001)" fill="#E7E7E9"/>
<rect x="42.9004" y="56.1599" width="8.58" height="3.12" transform="rotate(90 42.9004 56.1599)" fill="#E7E7E9"/>
<rect x="7.01953" y="14.8201" width="49.92" height="3.9" transform="rotate(90 7.01953 14.8201)" fill="#E7E7E9"/>
<path d="M28.0312 6.09375H18.2812V8.53125H28.0312V6.09375Z" fill="#616C8A"/>
<path d="M32.9062 6.09375H30.4688V8.53125H32.9062V6.09375Z" fill="#616C8A"/>
<path d="M15.8438 6.09375H13.4062V8.53125H15.8438V6.09375Z" fill="#616C8A"/>
<path d="M26.8125 69.4688H19.5V71.9062H26.8125V69.4688Z" fill="#616C8A"/>
<path d="M73.125 23.1562H45.0938V7.3125C45.0938 3.95241 42.3601 1.21875 39 1.21875H7.3125C3.95241 1.21875 1.21875 3.95241 1.21875 7.3125V70.6875C1.21875 74.0476 3.95241 76.7812 7.3125 76.7812H39C42.3601 76.7812 45.0938 74.0476 45.0938 70.6875V57.2812H73.125C75.1408 57.2812 76.7812 55.6408 76.7812 53.625V26.8125C76.7812 24.7967 75.1408 23.1562 73.125 23.1562ZM74.3438 26.8125V30.4688H32.9062V26.8125C32.9062 26.1397 33.4535 25.5938 34.125 25.5938H73.125C73.7965 25.5938 74.3438 26.1397 74.3438 26.8125ZM30.4688 48.1114C28.6638 49.324 26.5712 49.9688 24.375 49.9688C18.3276 49.9688 13.4062 45.0487 13.4062 39C13.4062 32.9513 18.3276 28.0312 24.375 28.0312C26.5712 28.0312 28.6638 28.676 30.4688 29.8874V48.1114ZM32.9062 32.9062H74.3438V37.7812H32.9062V32.9062ZM7.3125 3.65625H39C41.0158 3.65625 42.6562 5.29669 42.6562 7.3125V10.9688H3.65625V7.3125C3.65625 5.29669 5.29669 3.65625 7.3125 3.65625ZM39 74.3438H7.3125C5.29669 74.3438 3.65625 72.7033 3.65625 70.6875V67.0312H42.6562V70.6875C42.6562 72.7033 41.0158 74.3438 39 74.3438ZM42.6562 64.5938H3.65625V13.4062H42.6562V23.1562H40.2188V15.8438H6.09375V62.1562H40.2188V57.2812H42.6562V64.5938ZM73.125 54.8438H39L37.7812 54.9559V59.7188H8.53125V18.2812H37.7812V23.1562H34.125C32.1092 23.1562 30.4688 24.7967 30.4688 26.8125V27.0587C28.5955 26.0983 26.5249 25.5938 24.375 25.5938C16.9833 25.5938 10.9688 31.6083 10.9688 39C10.9688 46.3917 16.9833 52.4062 24.375 52.4062C26.5249 52.4062 28.5943 51.9017 30.4688 50.9413V53.625C30.4688 55.6408 32.1092 57.2812 34.125 57.2812H35.3438V54.8438H34.125C33.4535 54.8438 32.9062 54.2977 32.9062 53.625V40.2188H74.3438V53.625C74.3438 54.2977 73.7965 54.8438 73.125 54.8438Z" fill="#616C8A"/>
<path d="M67.0312 42.6562C66.1403 42.6562 65.3165 42.9134 64.5974 43.3327C63.8552 42.8963 63.0179 42.6562 62.1562 42.6562C59.4677 42.6562 57.2812 44.8427 57.2812 47.5312C57.2812 50.2198 59.4677 52.4062 62.1562 52.4062C63.0179 52.4062 63.8552 52.1662 64.5974 51.7298C65.3165 52.1491 66.1403 52.4062 67.0312 52.4062C69.7198 52.4062 71.9062 50.2198 71.9062 47.5312C71.9062 44.8427 69.7198 42.6562 67.0312 42.6562ZM59.7188 47.5312C59.7188 46.187 60.812 45.0938 62.1562 45.0938C62.3878 45.0938 62.5926 45.1328 62.7839 45.1864C62.3963 45.8847 62.1562 46.6769 62.1562 47.5312C62.1562 48.3856 62.3963 49.1778 62.7839 49.8761C62.5926 49.9297 62.3878 49.9687 62.1562 49.9687C60.812 49.9687 59.7188 48.8755 59.7188 47.5312ZM67.0312 49.9687C65.687 49.9687 64.5937 48.8755 64.5937 47.5312C64.5937 46.187 65.687 45.0938 67.0312 45.0938C68.3755 45.0938 69.4688 46.187 69.4688 47.5312C69.4688 48.8755 68.3755 49.9687 67.0312 49.9687Z" fill="#2D344A"/>
<path d="M37.7812 49.9688H35.3438V52.4062H37.7812V49.9688Z" fill="#616C8A"/>
<path d="M42.6562 49.9688H40.2188V52.4062H42.6562V49.9688Z" fill="#616C8A"/>
<path d="M47.5312 49.9688H45.0938V52.4062H47.5312V49.9688Z" fill="#616C8A"/>
<path d="M52.4062 49.9688H49.9688V52.4062H52.4062V49.9688Z" fill="#616C8A"/>
<path d="M52.4062 45.0938H35.3438V47.5312H52.4062V45.0938Z" fill="#616C8A"/>
<path d="M23.1562 30.4688V33.1305C21.7413 33.6351 20.7188 34.9757 20.7188 36.5625C20.7188 38.5783 22.3592 40.2188 24.375 40.2188C25.0465 40.2188 25.5938 40.7648 25.5938 41.4375C25.5938 42.1102 25.0465 42.6562 24.375 42.6562C23.7035 42.6562 23.1562 42.1102 23.1562 41.4375H20.7188C20.7188 43.0243 21.7413 44.3649 23.1562 44.8695V47.5312H25.5938V44.8695C27.0087 44.3649 28.0312 43.0243 28.0312 41.4375C28.0312 39.4217 26.3908 37.7812 24.375 37.7812C23.7035 37.7812 23.1562 37.2352 23.1562 36.5625C23.1562 35.8898 23.7035 35.3438 24.375 35.3438C25.0465 35.3438 25.5938 35.8898 25.5938 36.5625H28.0312C28.0312 34.9757 27.0087 33.6351 25.5938 33.1305V30.4688H23.1562Z" fill="#2D344A"/>
</svg>
