<svg width="32" height="38" viewBox="0 0 32 38" fill="none" xmlns="http://www.w3.org/2000/svg">
<path d="M15.4407 35.4113C15.5946 35.5537 15.7972 35.625 15.9997 35.625C16.2023 35.625 16.4048 35.5537 16.5587 35.4113C17.0935 34.9046 29.7729 23.085 29.7729 15.8333C29.7729 8.41542 23.5911 2.375 15.9997 2.375C8.40828 2.375 2.22656 8.41542 2.22656 15.8333C2.22656 23.085 14.906 34.9046 15.4407 35.4113ZM15.9997 3.95833C22.6999 3.95833 28.1525 9.28625 28.1525 15.8333C28.1525 21.6046 18.4546 31.3579 15.9997 33.725C13.5449 31.3579 3.84693 21.6125 3.84693 15.8333C3.84693 9.28625 9.29948 3.95833 15.9997 3.95833Z" fill="#62A744" stroke="#62A744"/>
<path d="M21.6727 15.8332C21.6727 12.7773 19.1287 10.2915 16.0014 10.2915C12.8741 10.2915 10.3301 12.7773 10.3301 15.8332C10.3301 18.889 12.8741 21.3748 16.0014 21.3748C19.1287 21.3748 21.6727 18.889 21.6727 15.8332ZM11.9504 15.8332C11.9504 13.6482 13.7653 11.8748 16.0014 11.8748C18.2375 11.8748 20.0523 13.6482 20.0523 15.8332C20.0523 18.0182 18.2375 19.7915 16.0014 19.7915C13.7653 19.7915 11.9504 18.0182 11.9504 15.8332Z" fill="#62A744" stroke="#62A744"/>
</svg>
