<svg width="32" height="34" viewBox="0 0 32 34" fill="none" xmlns="http://www.w3.org/2000/svg">
<path d="M24.128 20.3451C23.5548 19.7482 22.8633 19.4291 22.1306 19.4291C21.4037 19.4291 20.7063 19.7423 20.1095 20.3391L18.242 22.2007C18.0884 22.1179 17.9347 22.0411 17.787 21.9643C17.5743 21.8579 17.3733 21.7574 17.202 21.6511C15.4527 20.5401 13.863 19.0922 12.3384 17.2189C11.5997 16.2852 11.1033 15.4992 10.7428 14.7014C11.2274 14.2582 11.6765 13.7972 12.1138 13.354C12.2793 13.1885 12.4447 13.0172 12.6102 12.8517C13.8512 11.6107 13.8512 10.0033 12.6102 8.76225L10.9969 7.14893C10.8137 6.96574 10.6246 6.77663 10.4473 6.58752C10.0927 6.22113 9.72041 5.84291 9.33628 5.48834C8.76305 4.92102 8.07754 4.61963 7.35657 4.61963C6.6356 4.61963 5.93827 4.92102 5.34731 5.48834C5.3414 5.49425 5.3414 5.49425 5.33549 5.50016L3.32623 7.52715C2.5698 8.28358 2.1384 9.20547 2.04385 10.2751C1.90202 12.0007 2.41024 13.6081 2.80028 14.66C3.75763 17.2425 5.18775 19.6359 7.32111 22.2007C9.90951 25.2914 13.0239 27.732 16.5814 29.4517C17.9406 30.0959 19.7549 30.8582 21.7819 30.9882C21.906 30.9941 22.036 31 22.1542 31C23.5193 31 24.6658 30.5096 25.564 29.5345C25.5699 29.5226 25.5818 29.5167 25.5877 29.5049C25.895 29.1326 26.2495 28.7958 26.6218 28.4353C26.876 28.193 27.136 27.9389 27.3901 27.6729C27.9751 27.0643 28.2824 26.3551 28.2824 25.6282C28.2824 24.8954 27.9692 24.1922 27.3724 23.6012L24.128 20.3451ZM26.2436 26.5679C26.2377 26.5679 26.2377 26.5738 26.2436 26.5679C26.0132 26.8161 25.7768 27.0406 25.5227 27.2888C25.1385 27.6552 24.7485 28.0393 24.3821 28.4707C23.7852 29.109 23.082 29.4104 22.1601 29.4104C22.0715 29.4104 21.9769 29.4104 21.8883 29.4045C20.1331 29.2922 18.5021 28.6067 17.2788 28.0216C13.9339 26.4024 10.9969 24.1036 8.55622 21.1901C6.54105 18.7613 5.19366 16.5156 4.30131 14.1045C3.75172 12.633 3.55079 11.4866 3.63944 10.4051C3.69853 9.7137 3.96447 9.14047 4.45496 8.64997L6.47013 6.6348C6.7597 6.36296 7.067 6.21522 7.36839 6.21522C7.74069 6.21522 8.04208 6.43978 8.23119 6.62889C8.2371 6.6348 8.24301 6.64071 8.24892 6.64662C8.6094 6.98347 8.95216 7.33213 9.31265 7.70444C9.49584 7.89354 9.68495 8.08265 9.87406 8.27767L11.4874 9.89099C12.1138 10.5174 12.1138 11.0965 11.4874 11.723C11.316 11.8943 11.1505 12.0657 10.9792 12.2312C10.4827 12.7394 10.01 13.2122 9.49584 13.6731C9.48402 13.6849 9.47221 13.6909 9.4663 13.7027C8.95807 14.2109 9.05262 14.7073 9.159 15.0441C9.16491 15.0619 9.17082 15.0796 9.17673 15.0973C9.59631 16.1138 10.1873 17.0711 11.0855 18.2117L11.0914 18.2176C12.7225 20.2269 14.4422 21.7929 16.3392 22.9925C16.5814 23.1462 16.8296 23.2703 17.066 23.3885C17.2788 23.4949 17.4797 23.5953 17.6511 23.7017C17.6747 23.7135 17.6984 23.7312 17.722 23.7431C17.9229 23.8435 18.112 23.8908 18.307 23.8908C18.7975 23.8908 19.1048 23.5835 19.2053 23.483L21.2264 21.462C21.4273 21.261 21.7464 21.0187 22.1187 21.0187C22.4851 21.0187 22.7865 21.2492 22.9697 21.4501C22.9756 21.4561 22.9756 21.4561 22.9815 21.462L26.2377 24.7181C26.8464 25.3209 26.8464 25.9414 26.2436 26.5679Z" fill="#62A744"/>
<path d="M26.2436 26.5679C26.2377 26.5679 26.2377 26.5738 26.2436 26.5679ZM26.2436 26.5679C26.0132 26.8161 25.7768 27.0406 25.5227 27.2888C25.1385 27.6552 24.7485 28.0393 24.3821 28.4707C23.7852 29.109 23.082 29.4104 22.1601 29.4104C22.0715 29.4104 21.9769 29.4104 21.8883 29.4045C20.1331 29.2922 18.5021 28.6067 17.2788 28.0216C13.9339 26.4024 10.9969 24.1036 8.55622 21.1901C6.54105 18.7613 5.19366 16.5156 4.30131 14.1045C3.75172 12.633 3.55079 11.4866 3.63944 10.4051C3.69853 9.7137 3.96447 9.14047 4.45496 8.64997L6.47013 6.6348C6.7597 6.36296 7.067 6.21522 7.36839 6.21522C7.74069 6.21522 8.04208 6.43978 8.23119 6.62889C8.2371 6.6348 8.24301 6.64071 8.24892 6.64662C8.6094 6.98347 8.95216 7.33213 9.31265 7.70444C9.49584 7.89354 9.68495 8.08265 9.87406 8.27767L11.4874 9.89099C12.1138 10.5174 12.1138 11.0965 11.4874 11.723C11.316 11.8943 11.1505 12.0657 10.9792 12.2312C10.4827 12.7394 10.01 13.2122 9.49584 13.6731C9.48402 13.6849 9.47221 13.6909 9.4663 13.7027C8.95807 14.2109 9.05262 14.7073 9.159 15.0441C9.16491 15.0619 9.17082 15.0796 9.17673 15.0973C9.59631 16.1138 10.1873 17.0711 11.0855 18.2117L11.0914 18.2176C12.7225 20.2269 14.4422 21.7929 16.3392 22.9925C16.5814 23.1462 16.8296 23.2703 17.066 23.3885C17.2788 23.4949 17.4797 23.5953 17.6511 23.7017C17.6747 23.7135 17.6984 23.7312 17.722 23.7431C17.9229 23.8435 18.112 23.8908 18.307 23.8908C18.7975 23.8908 19.1048 23.5835 19.2053 23.483L21.2264 21.462C21.4273 21.261 21.7464 21.0187 22.1187 21.0187C22.4851 21.0187 22.7865 21.2492 22.9697 21.4501C22.9756 21.4561 22.9756 21.4561 22.9815 21.462L26.2377 24.7181C26.8464 25.3209 26.8464 25.9414 26.2436 26.5679ZM24.128 20.3451C23.5548 19.7482 22.8633 19.4291 22.1306 19.4291C21.4037 19.4291 20.7063 19.7423 20.1095 20.3391L18.242 22.2007C18.0884 22.1179 17.9347 22.0411 17.787 21.9643C17.5743 21.8579 17.3733 21.7574 17.202 21.6511C15.4527 20.5401 13.863 19.0922 12.3384 17.2189C11.5997 16.2852 11.1033 15.4992 10.7428 14.7014C11.2274 14.2582 11.6765 13.7972 12.1138 13.354C12.2793 13.1885 12.4447 13.0172 12.6102 12.8517C13.8512 11.6107 13.8512 10.0033 12.6102 8.76225L10.9969 7.14893C10.8137 6.96574 10.6246 6.77663 10.4473 6.58752C10.0927 6.22113 9.72041 5.84291 9.33628 5.48834C8.76305 4.92102 8.07754 4.61963 7.35657 4.61963C6.6356 4.61963 5.93827 4.92102 5.34731 5.48834C5.3414 5.49425 5.3414 5.49425 5.33549 5.50016L3.32623 7.52715C2.5698 8.28358 2.1384 9.20547 2.04385 10.2751C1.90202 12.0007 2.41024 13.6081 2.80028 14.66C3.75763 17.2425 5.18775 19.6359 7.32111 22.2007C9.90951 25.2914 13.0239 27.732 16.5814 29.4517C17.9406 30.0959 19.7549 30.8582 21.7819 30.9882C21.906 30.9941 22.036 31 22.1542 31C23.5193 31 24.6658 30.5096 25.564 29.5345C25.5699 29.5226 25.5818 29.5167 25.5877 29.5049C25.895 29.1326 26.2495 28.7958 26.6218 28.4353C26.876 28.193 27.136 27.9389 27.3901 27.6729C27.9751 27.0643 28.2824 26.3551 28.2824 25.6282C28.2824 24.8954 27.9692 24.1922 27.3724 23.6012L24.128 20.3451Z" stroke="#62A744" stroke-width="0.7"/>
<path d="M17.1313 9.66027C18.6796 9.92029 20.0861 10.6531 21.2089 11.7759C22.3317 12.8987 23.0586 14.3052 23.3245 15.8535C23.3896 16.2436 23.7264 16.5154 24.1105 16.5154C24.1578 16.5154 24.1992 16.5095 24.2464 16.5036C24.6838 16.4327 24.9733 16.019 24.9024 15.5817C24.5833 13.7083 23.6969 12.0005 22.3436 10.6472C20.9903 9.29387 19.2824 8.40744 17.409 8.08832C16.9717 8.0174 16.564 8.30697 16.4872 8.73837C16.4103 9.16977 16.694 9.58935 17.1313 9.66027Z" fill="#62A744" stroke="#62A744" stroke-width="0.7"/>
<path d="M29.9671 15.3514C29.4411 12.2666 27.9873 9.45953 25.7535 7.2257C23.5197 4.99188 20.7126 3.53812 17.6278 3.01216C17.1964 2.93534 16.7887 3.23082 16.7118 3.66222C16.6409 4.09953 16.9305 4.50729 17.3678 4.58411C20.1217 5.05097 22.6333 6.35699 24.6307 8.34852C26.6281 10.346 27.9283 12.8575 28.3951 15.6114C28.4601 16.0014 28.797 16.2733 29.1811 16.2733C29.2284 16.2733 29.2697 16.2674 29.317 16.2615C29.7484 16.1965 30.0439 15.7828 29.9671 15.3514Z" fill="#62A744" stroke="#62A744" stroke-width="0.7"/>
<path d="M26.5 25L27 26V27H26L26.5 25Z" fill="#62A744"/>
</svg>
