<svg width="32" height="32" viewBox="0 0 32 32" fill="none" xmlns="http://www.w3.org/2000/svg">
<path d="M15.9995 2C8.28074 2 2 8.28023 2 16C2 23.7198 8.28074 30 15.9995 30C23.7198 30 29.9995 23.7198 29.9995 16C29.9995 8.28023 23.7198 2 15.9995 2ZM15.9995 28.1334C9.30933 28.1334 3.86657 22.6907 3.86657 16C3.86657 9.30933 9.30984 3.86657 15.9995 3.86657C22.6907 3.86657 28.1329 9.30933 28.1329 16C28.1329 22.6907 22.6912 28.1334 15.9995 28.1334Z" fill="#62A744" stroke="#62A744" stroke-width="0.6"/>
<path d="M22.934 14.9867H16.9339V7.05316C16.9339 6.53761 16.5159 6.11963 16.0009 6.11963C15.4863 6.11963 15.0684 6.53811 15.0684 7.05316V16.8528H22.934C23.449 16.8528 23.867 16.4353 23.8665 15.9197C23.8665 15.4047 23.448 14.9867 22.934 14.9867Z" fill="#62A744" stroke="#62A744" stroke-width="0.6"/>
</svg>
