<svg width="28" height="28" viewBox="0 0 28 28" fill="none" xmlns="http://www.w3.org/2000/svg">
<g clip-path="url(#clip0_265_550)">
<path d="M24.5818 3.3457H3.42396C1.53528 3.3457 0 4.88098 0 6.76966V21.2302C0 23.1189 1.53528 24.6542 3.42396 24.6542H24.576C26.4647 24.6542 28 23.1189 28 21.2302V6.77546C28.0058 4.88677 26.4705 3.3457 24.5818 3.3457ZM26.4415 21.2302C26.4415 22.2557 25.6073 23.09 24.5818 23.09H3.42396C2.39851 23.09 1.56425 22.2557 1.56425 21.2302V6.77546C1.56425 5.75001 2.39851 4.91574 3.42396 4.91574H24.576C25.6015 4.91574 26.4358 5.75001 26.4358 6.77546V21.2302H26.4415Z" fill="#62A744" stroke="#62A744" stroke-width="0.4"/>
<path d="M17.659 13.8202L24.507 7.67911C24.8256 7.38943 24.8546 6.89698 24.5649 6.57255C24.2752 6.25391 23.7828 6.22494 23.4583 6.51461L14.0149 14.9905L12.1726 13.3452C12.1668 13.3394 12.161 13.3336 12.161 13.3278C12.1205 13.2872 12.0799 13.2525 12.0336 13.2177L4.53677 6.50882C4.21233 6.21914 3.71988 6.24811 3.43021 6.57255C3.14053 6.89698 3.1695 7.38943 3.49394 7.67911L10.423 13.8724L3.5229 20.3321C3.21005 20.6276 3.19267 21.12 3.48814 21.4387C3.64457 21.6009 3.85313 21.6878 4.0617 21.6878C4.25288 21.6878 4.44407 21.6183 4.5947 21.4792L11.599 14.9268L13.4993 16.6243C13.6499 16.7575 13.8353 16.8213 14.0207 16.8213C14.2061 16.8213 14.3973 16.7517 14.5421 16.6185L16.4946 14.8688L23.4583 21.485C23.609 21.6299 23.806 21.6994 23.9971 21.6994C24.2057 21.6994 24.4085 21.6183 24.5649 21.4561C24.8604 21.1432 24.8488 20.645 24.5359 20.3495L17.659 13.8202Z" fill="#62A744" stroke="#62A744" stroke-width="0.4"/>
</g>
<defs>
<clipPath id="clip0_265_550">
<rect width="28" height="28" fill="white"/>
</clipPath>
</defs>
</svg>
