<svg width="45" height="45" viewBox="0 0 45 45" fill="none" xmlns="http://www.w3.org/2000/svg">
<g clip-path="url(#clip0_265_576)">
<path d="M22.5 45C34.9264 45 45 34.9264 45 22.5C45 10.0736 34.9264 0 22.5 0C10.0736 0 0 10.0736 0 22.5C0 34.9264 10.0736 45 22.5 45Z" fill="#4169E1"/>
<path d="M35.4687 31.3059C34.8142 31.398 31.6131 31.3059 31.4469 31.3059C30.6194 31.3165 29.821 31.0005 29.225 30.4264C28.55 29.7769 27.9466 29.061 27.2869 28.3809C27.0918 28.1744 26.8806 27.9838 26.6554 27.8107C26.1287 27.4042 25.6071 27.4963 25.3591 28.1176C25.1653 28.789 25.0301 29.4759 24.9551 30.1707C24.9116 30.7997 24.5128 31.1934 23.8071 31.2369C23.3699 31.2599 22.9327 31.2676 22.5006 31.2573C20.9258 31.2473 19.3758 30.8644 17.9775 30.14C16.4646 29.2969 15.1464 28.1443 14.1091 26.7573C12.4037 24.5789 11.0409 22.1857 9.82385 19.7184C9.75993 19.5957 8.5122 16.9417 8.48152 16.8164C8.36902 16.3971 8.48152 15.9957 8.82669 15.8576C9.04658 15.7732 13.1579 15.8576 13.227 15.8576C13.5326 15.855 13.8312 15.9497 14.0794 16.128C14.3276 16.3064 14.5127 16.5591 14.6077 16.8497C15.3677 18.7957 16.4082 20.6201 17.6963 22.265C17.8766 22.485 18.0875 22.6778 18.3227 22.8377C18.6577 23.0653 18.9747 22.986 19.1128 22.5999C19.2764 22.0643 19.3726 21.5103 19.3991 20.9508C19.4221 19.8411 19.3991 19.1099 19.3378 18.0028C19.2969 17.292 19.0463 16.6681 17.998 16.4687C17.6758 16.4124 17.6477 16.1465 17.8548 15.8806C18.2869 15.3284 18.8775 15.2414 19.5398 15.2082C20.5267 15.1519 21.5136 15.1903 22.5006 15.2082H22.7153C23.1449 15.2066 23.5734 15.2503 23.9937 15.3386C24.2422 15.3888 24.4679 15.518 24.6369 15.7069C24.806 15.8959 24.9096 16.1343 24.9321 16.3869C24.9826 16.6669 25.004 16.9513 24.996 17.2357C24.9704 18.4477 24.9116 19.657 24.8989 20.869C24.8871 21.3488 24.9308 21.8284 25.0293 22.2982C25.1699 22.9426 25.6122 23.1036 26.052 22.6383C26.6214 22.0367 27.1437 21.3922 27.6142 20.7105C28.4461 19.4679 29.1325 18.1339 29.6596 16.7346C29.946 16.0161 30.171 15.8576 30.9381 15.8576H35.3C35.5594 15.8531 35.8179 15.8875 36.067 15.9599C36.1552 15.9831 36.2376 16.0242 36.3092 16.0807C36.3807 16.1372 36.4398 16.2079 36.4828 16.2883C36.5258 16.3687 36.5517 16.4571 36.5589 16.548C36.5661 16.6389 36.5545 16.7302 36.5247 16.8164C36.3099 17.7727 35.7935 18.5883 35.2463 19.3732C34.3591 20.6312 33.4233 21.8559 32.5156 23.0934C32.4008 23.2575 32.2958 23.4283 32.2011 23.6048C31.8585 24.221 31.8841 24.5661 32.3801 25.0801C33.1727 25.8931 34.019 26.6576 34.7835 27.4963C35.3448 28.1059 35.8513 28.7639 36.2972 29.4624C36.8571 30.3292 36.5119 31.1576 35.4687 31.3059Z" fill="white"/>
</g>
<defs>
<clipPath id="clip0_265_576">
<rect width="45" height="45" fill="white"/>
</clipPath>
</defs>
</svg>
