<svg width="45" height="45" viewBox="0 0 45 45" fill="none" xmlns="http://www.w3.org/2000/svg">
<g clip-path="url(#clip0_265_566)">
<path d="M22.5 45C34.9264 45 45 34.9264 45 22.5C45 10.0736 34.9264 0 22.5 0C10.0736 0 0 10.0736 0 22.5C0 34.9264 10.0736 45 22.5 45Z" fill="#2AA81A"/>
<path d="M30.4375 14.5626C28.5652 12.6692 26.0777 11.5075 23.424 11.2873C20.7702 11.0671 18.1252 11.8029 15.9665 13.3619C13.8078 14.9209 12.2775 17.2004 11.6521 19.7887C11.0267 22.3771 11.3472 25.1037 12.5559 27.4765L11.3717 33.2258C11.359 33.2832 11.3585 33.3427 11.3703 33.4003C11.382 33.4579 11.4057 33.5124 11.4398 33.5603C11.4887 33.6329 11.5585 33.6887 11.64 33.7205C11.7215 33.7522 11.8107 33.7583 11.8957 33.738L17.5207 32.4028C19.8869 33.5798 22.594 33.879 25.1602 33.2471C27.7263 32.6152 29.9849 31.0933 31.5341 28.9522C33.0833 26.8111 33.8224 24.1897 33.62 21.5547C33.4175 18.9197 32.2867 16.442 30.4286 14.5626H30.4375ZM28.679 28.5867C27.3841 29.8792 25.7167 30.7335 23.9111 31.0292C22.1056 31.325 20.2528 31.0475 18.6132 30.2357L17.8257 29.8449L14.3707 30.662V30.6176L15.099 27.133L14.7142 26.3751C13.8758 24.7311 13.5798 22.8637 13.8686 21.0409C14.1574 19.2182 15.0162 17.5338 16.3217 16.2294C17.961 14.5919 20.1833 13.672 22.5003 13.672C24.8174 13.672 27.0397 14.5919 28.679 16.2294L28.7174 16.2827C30.3354 17.9255 31.2386 20.1411 31.2303 22.4468C31.222 24.7525 30.3028 26.9615 28.673 28.5926L28.679 28.5867Z" fill="white"/>
<path d="M28.3741 26.0525C27.9507 26.7186 27.2787 27.5327 26.4409 27.737C24.9606 28.0923 22.7076 27.737 19.8863 25.1288L19.8507 25.0962C17.3965 22.8048 16.7451 20.8952 16.8902 19.3824C16.9761 18.5209 17.6925 17.7452 18.2965 17.236C18.3925 17.1551 18.5061 17.0977 18.6283 17.0685C18.7504 17.0393 18.8777 17.039 19 17.0678C19.1222 17.0966 19.2361 17.1535 19.3324 17.2341C19.4287 17.3148 19.5048 17.4168 19.5547 17.5321L20.4636 19.5867C20.5229 19.7189 20.5452 19.8648 20.5279 20.0088C20.5107 20.1527 20.4547 20.2892 20.3659 20.4038L19.904 20.9959C19.808 21.1188 19.7508 21.2675 19.7398 21.4231C19.7287 21.5786 19.7642 21.734 19.8419 21.8692C20.2806 22.5158 20.8055 23.0995 21.4021 23.6041C22.0439 24.2218 22.7719 24.7434 23.5632 25.1525C23.7077 25.2107 23.8662 25.2246 24.0185 25.1924C24.1709 25.1603 24.3102 25.0835 24.4188 24.9719L24.9488 24.4331C25.0496 24.3246 25.1785 24.2462 25.3211 24.2065C25.4638 24.1668 25.6146 24.1673 25.757 24.2081L27.9182 24.8268C28.0406 24.8617 28.1532 24.9248 28.2467 25.0113C28.3402 25.0977 28.4121 25.2049 28.4564 25.3242C28.5008 25.4435 28.5165 25.5717 28.5022 25.6982C28.4879 25.8247 28.444 25.9461 28.3741 26.0525Z" fill="white"/>
</g>
<defs>
<clipPath id="clip0_265_566">
<rect width="45" height="45" fill="white"/>
</clipPath>
</defs>
</svg>
