<svg width="45" height="45" viewBox="0 0 45 45" fill="none" xmlns="http://www.w3.org/2000/svg">
<g clip-path="url(#clip0_265_581)">
<path d="M22.5 45C34.9264 45 45 34.9264 45 22.5C45 10.0736 34.9264 0 22.5 0C10.0736 0 0 10.0736 0 22.5C0 34.9264 10.0736 45 22.5 45Z" fill="#FF0000"/>
<path d="M29.8631 14.0361H15.1375C14.549 14.0361 13.9663 14.1521 13.4227 14.3774C12.879 14.6027 12.3851 14.9329 11.9691 15.3491C11.5531 15.7654 11.2232 16.2595 10.9983 16.8033C10.7734 17.3471 10.6578 17.9299 10.6582 18.5184V26.4822C10.6578 27.0707 10.7734 27.6534 10.9983 28.1972C11.2232 28.741 11.5531 29.2352 11.9691 29.6514C12.3851 30.0677 12.879 30.3979 13.4227 30.6232C13.9663 30.8485 14.549 30.9644 15.1375 30.9644H29.8631C30.4516 30.9644 31.0343 30.8485 31.578 30.6232C32.1216 30.3979 32.6155 30.0677 33.0315 29.6514C33.4475 29.2352 33.7774 28.741 34.0023 28.1972C34.2272 27.6534 34.3428 27.0707 34.3424 26.4822V18.5184C34.3428 17.9299 34.2272 17.3471 34.0023 16.8033C33.7774 16.2595 33.4475 15.7654 33.0315 15.3491C32.6155 14.9329 32.1216 14.6027 31.578 14.3774C31.0343 14.1521 30.4516 14.0361 29.8631 14.0361ZM19.3799 26.1299V18.8707L25.6207 22.5003L19.3799 26.1299Z" fill="white"/>
</g>
<defs>
<clipPath id="clip0_265_581">
<rect width="45" height="45" fill="white"/>
</clipPath>
</defs>
</svg>
