<svg width="226" height="54" viewBox="0 0 226 54" fill="none" xmlns="http://www.w3.org/2000/svg">
<path fill-rule="evenodd" clip-rule="evenodd" d="M34.203 19.2111C34.203 10.9378 27.4965 4.21118 19.2066 4.21118C10.9353 4.21118 4.21017 10.9378 4.21017 19.2111C4.21017 27.5031 10.9353 34.2111 19.2066 34.2111C27.4965 34.2111 34.203 27.5031 34.203 19.2111ZM19.2066 0C8.60663 0 0 8.6087 0 19.2111C0 33.8571 16.4122 36.5962 19.2066 54C22.0009 36.5962 38.4318 33.8571 38.4318 19.2111C38.4318 8.6087 29.8252 0 19.2066 0ZM17.1946 13.8634H27.72V22.2857H26.3229C26.1366 21.559 25.4845 21.0372 24.7022 21.0372C23.9384 21.0372 23.2863 21.559 23.0814 22.2857H17.1946V13.8634ZM13.7669 15.149H16.8221V18.8198V22.2857H14.9778C14.7915 21.559 14.1395 21.0372 13.3757 21.0372C12.5932 21.0372 11.9412 21.559 11.7549 22.2857H10.8235V18.2981L13.7669 15.149ZM13.9346 15.5217H16.4681V18.4472H11.1961L13.9346 15.5217ZM13.3757 22.1552C13.6737 22.1552 13.9159 22.3975 13.9159 22.6956C13.9159 23.0124 13.6737 23.2546 13.3757 23.2546C13.059 23.2546 12.8168 23.0124 12.8168 22.6956C12.8168 22.3975 13.059 22.1552 13.3757 22.1552ZM13.3757 21.5403C14.009 21.5403 14.5307 22.0621 14.5307 22.6956C14.5307 23.3478 14.009 23.8696 13.3757 23.8696C12.7237 23.8696 12.202 23.3478 12.202 22.6956C12.202 22.0621 12.7237 21.5403 13.3757 21.5403ZM24.7022 22.1552C25.0002 22.1552 25.261 22.3975 25.261 22.6956C25.261 23.0124 25.0002 23.2546 24.7022 23.2546C24.4041 23.2546 24.1619 23.0124 24.1619 22.6956C24.1619 22.3975 24.4041 22.1552 24.7022 22.1552ZM24.7022 21.5403C25.3542 21.5403 25.8758 22.0621 25.8758 22.6956C25.8758 23.3478 25.3542 23.8696 24.7022 23.8696C24.0687 23.8696 23.5472 23.3478 23.5472 22.6956C23.5472 22.0621 24.0687 21.5403 24.7022 21.5403ZM55.321 3.3354H57.0348V50.646H55.321V3.3354ZM72.9433 30.5776C73.7073 31.4161 74.7316 31.826 76.0545 31.826C77.3769 31.826 78.4017 31.4161 79.1657 30.5776C79.9104 29.7577 80.2831 28.5652 80.2831 27C80.2831 25.4347 79.9104 24.2422 79.1657 23.4037C78.4017 22.5838 77.3769 22.1739 76.0545 22.1739C74.7316 22.1739 73.7073 22.5838 72.9433 23.4037C72.1981 24.2422 71.8254 25.4347 71.8254 27C71.8254 28.5652 72.1981 29.7577 72.9433 30.5776ZM68.938 20.6273C70.6149 19.0807 72.9808 18.2981 76.0545 18.2981C79.1282 18.2981 81.4941 19.0807 83.1705 20.6273C84.8473 22.1925 85.7045 24.3167 85.7045 27C85.7045 29.6832 84.8473 31.8074 83.1705 33.354C81.4941 34.9192 79.1282 35.7018 76.0545 35.7018C72.9808 35.7018 70.6149 34.9192 68.938 33.354C67.2617 31.8074 66.4045 29.6832 66.4045 27C66.4045 24.3167 67.2617 22.1925 68.938 20.6273ZM91.7587 19.5838L95.9873 30.2981H96.2298L100.346 19.5838C100.57 19.0435 100.924 18.7639 101.409 18.7639H105.395C105.656 18.7639 105.842 18.8385 105.972 19.0062C106.084 19.1552 106.103 19.3602 105.991 19.5838L99.6387 34.4161C99.3967 34.9378 99.0428 35.1987 98.577 35.1987L93.752 35.236C93.3049 35.236 92.951 34.9565 92.7085 34.4161L86.3561 19.5838C86.2447 19.3602 86.2447 19.1552 86.3748 19.0062C86.5054 18.8385 86.6917 18.7639 86.9337 18.7639H90.697C91.181 18.7639 91.5349 19.0435 91.7587 19.5838ZM125.571 26.6459V28.6397C125.571 30.5962 124.77 32.2733 123.167 33.6335C121.565 35.0124 119.423 35.7018 116.759 35.7018C113.685 35.7018 111.319 34.9192 109.624 33.354C107.947 31.8074 107.109 29.6832 107.109 27C107.109 24.3167 107.947 22.1925 109.624 20.6273C111.319 19.0807 113.685 18.2981 116.759 18.2981C119.348 18.2981 121.398 18.8571 122.925 19.9751C124.453 21.0931 125.217 22.3416 125.217 23.7018C125.217 24 125.142 24.2422 124.956 24.3913C124.788 24.559 124.565 24.6521 124.285 24.6521H121.341C120.876 24.6521 120.41 24.3354 119.926 23.7018C119.591 23.2173 119.181 22.8447 118.715 22.5838C118.249 22.3043 117.597 22.1739 116.759 22.1739C115.436 22.1739 114.412 22.5838 113.648 23.4037C112.903 24.2422 112.53 25.4347 112.53 27C112.53 28.5652 112.903 29.7577 113.648 30.5776C114.412 31.4161 115.436 31.826 116.759 31.826C118.585 31.826 119.814 31.0807 120.41 29.59H117.765C117.541 29.59 117.336 29.5155 117.187 29.3478C117.02 29.1987 116.945 28.9938 116.945 28.7701V26.6459C116.945 26.4037 117.02 26.2173 117.187 26.0497C117.336 25.9006 117.541 25.826 117.765 25.826H124.751C124.993 25.826 125.179 25.9006 125.347 26.0497C125.496 26.2173 125.571 26.4037 125.571 26.6459ZM141.163 34.4161L140.343 32.2919H132.929L132.109 34.4161C131.886 34.9565 131.532 35.236 131.048 35.236H127.284C127.042 35.236 126.856 35.1428 126.725 34.9938C126.595 34.8447 126.595 34.6397 126.707 34.4161L133.283 19.5838C133.544 19.0435 133.898 18.7639 134.345 18.7639H139.17C139.635 18.7639 139.989 19.0248 140.231 19.5652L146.808 34.4161C146.919 34.6397 146.919 34.8447 146.789 34.9938C146.659 35.1428 146.472 35.236 146.212 35.236H142.225C141.741 35.236 141.387 34.9565 141.163 34.4161ZM136.58 23.7018L134.587 28.4161H138.704L136.822 23.7018H136.58ZM159.569 26.4037V28.5279C159.569 28.7701 159.494 28.9565 159.345 29.1242C159.177 29.2732 158.991 29.3478 158.749 29.3478H148.652C148.409 29.3478 148.205 29.2732 148.056 29.1242C147.907 28.9565 147.814 28.7701 147.814 28.5279V26.4037C147.814 26.1801 147.907 25.9751 148.056 25.826C148.205 25.6584 148.409 25.5838 148.652 25.5838H158.749C158.991 25.5838 159.177 25.6584 159.345 25.826C159.494 25.9751 159.569 26.1801 159.569 26.4037ZM174.993 35.236H172.162C171.827 35.236 171.547 35.1428 171.323 34.9751C171.1 34.8074 170.951 34.6024 170.858 34.4161L167.691 26.6459H167.449V34.4161C167.449 34.6397 167.374 34.8447 167.225 34.9938C167.057 35.1428 166.871 35.236 166.629 35.236H163.108C162.866 35.236 162.679 35.1428 162.512 34.9938C162.363 34.8447 162.288 34.6397 162.288 34.4161V19.5838C162.288 19.3602 162.363 19.1552 162.512 19.0062C162.679 18.8385 162.866 18.7639 163.108 18.7639H168.045C168.38 18.7639 168.641 18.8571 168.883 19.0248C169.107 19.1925 169.256 19.3789 169.33 19.5838L173.447 29.59H173.689L177.806 19.5838C177.881 19.3789 178.03 19.1925 178.253 19.0248C178.477 18.8571 178.756 18.7639 179.092 18.7639H184.028C184.271 18.7639 184.457 18.8385 184.625 19.0062C184.773 19.1552 184.848 19.3602 184.848 19.5838V34.4161C184.848 34.6397 184.773 34.8447 184.625 34.9938C184.457 35.1428 184.271 35.236 184.028 35.236H180.507C180.265 35.236 180.079 35.1428 179.912 34.9938C179.762 34.8447 179.688 34.6397 179.688 34.4161V26.6459H179.446L176.298 34.4161C176.223 34.6024 176.055 34.8074 175.832 34.9751C175.608 35.1428 175.329 35.236 174.993 35.236ZM194.218 30.5776C194.964 31.4161 196.007 31.826 197.311 31.826C198.634 31.826 199.677 31.4161 200.422 30.5776C201.167 29.7577 201.559 28.5652 201.559 27C201.559 25.4347 201.167 24.2422 200.422 23.4037C199.677 22.5838 198.634 22.1739 197.311 22.1739C196.007 22.1739 194.964 22.5838 194.218 23.4037C193.455 24.2422 193.082 25.4347 193.082 27C193.082 28.5652 193.455 29.7577 194.218 30.5776ZM190.195 20.6273C191.871 19.0807 194.237 18.2981 197.311 18.2981C200.385 18.2981 202.769 19.0807 204.446 20.6273C206.122 22.1925 206.961 24.3167 206.961 27C206.961 29.6832 206.122 31.8074 204.446 33.354C202.769 34.9192 200.385 35.7018 197.311 35.7018C194.237 35.7018 191.871 34.9192 190.195 33.354C188.518 31.8074 187.68 29.6832 187.68 27C187.68 24.3167 188.518 22.1925 190.195 20.6273ZM214.599 23.59C214.599 24.0186 214.99 24.3354 215.772 24.5403C216.555 24.7453 217.505 24.9317 218.623 25.0993C219.74 25.2484 220.858 25.472 221.976 25.7515C223.094 26.031 224.044 26.5527 224.826 27.3167C225.609 28.0807 226 29.0683 226 30.2981C226 31.826 225.273 33.1118 223.82 34.1552C222.386 35.1801 220.243 35.7018 217.43 35.7018C214.561 35.7018 212.4 35.1987 210.929 34.1925C209.457 33.1677 208.731 31.9565 208.731 30.5217C208.731 29.9068 209.029 29.59 209.662 29.59H212.605C213.183 29.59 213.648 29.9068 214.021 30.5217C214.524 31.3975 215.66 31.826 217.43 31.826C218.511 31.826 219.312 31.6584 219.815 31.3602C220.337 31.0621 220.597 30.6894 220.597 30.2981C220.597 29.8695 220.206 29.5527 219.424 29.3292C218.642 29.1242 217.691 28.9378 216.573 28.7888C215.456 28.6211 214.338 28.4161 213.22 28.118C212.102 27.8385 211.152 27.3167 210.37 26.5714C209.587 25.8074 209.196 24.8198 209.196 23.59C209.196 22.0621 209.886 20.8136 211.264 19.8074C212.643 18.8012 214.692 18.2981 217.43 18.2981C219.945 18.2981 221.902 18.8012 223.317 19.7888C224.715 20.7764 225.422 21.9317 225.422 23.236C225.422 23.8695 225.105 24.1677 224.472 24.1677H221.529C220.933 24.1677 220.467 23.8695 220.132 23.236C219.703 22.5279 218.809 22.1739 217.43 22.1739C216.443 22.1739 215.735 22.323 215.288 22.5838C214.823 22.8633 214.599 23.1987 214.599 23.59Z" fill="#62A744"/>
</svg>
